<mxfile host="Electron" agent="Mozilla/5.0 (Windows NT 10.0; Win64; x64) AppleWebKit/537.36 (KHTML, like Gecko) draw.io/24.7.17 Chrome/128.0.6613.36 Electron/32.0.1 Safari/537.36" version="24.7.17">
  <diagram name="Page-1" id="hDoRwq2UVfN1hMZUph-b">
    <mxGraphModel dx="4097" dy="2389" grid="1" gridSize="10" guides="1" tooltips="1" connect="1" arrows="1" fold="1" page="1" pageScale="1" pageWidth="1169" pageHeight="827" math="0" shadow="0">
      <root>
        <mxCell id="0" />
        <mxCell id="1" parent="0" />
        <mxCell id="PQpFnVnvUSLF5VVCA4I8-14" style="edgeStyle=orthogonalEdgeStyle;shape=connector;rounded=0;orthogonalLoop=1;jettySize=auto;html=1;exitX=1;exitY=1;exitDx=0;exitDy=0;entryX=0;entryY=0.5;entryDx=0;entryDy=0;strokeColor=default;strokeWidth=2;align=center;verticalAlign=middle;fontFamily=Helvetica;fontSize=12;fontColor=default;labelBackgroundColor=default;endArrow=none;endFill=0;" parent="1" source="k_0rw0cEwtQ7TOKx8WMM-1" target="PQpFnVnvUSLF5VVCA4I8-12" edge="1">
          <mxGeometry relative="1" as="geometry">
            <Array as="points">
              <mxPoint x="1200" y="470" />
              <mxPoint x="2510" y="470" />
              <mxPoint x="2510" y="385" />
            </Array>
          </mxGeometry>
        </mxCell>
        <mxCell id="k_0rw0cEwtQ7TOKx8WMM-1" value="&lt;span style=&quot;font-size: 36px;&quot;&gt;&lt;b&gt;Product&lt;/b&gt;&lt;/span&gt;" style="rounded=1;whiteSpace=wrap;html=1;strokeWidth=2;" parent="1" vertex="1">
          <mxGeometry x="920" y="330" width="280" height="110" as="geometry" />
        </mxCell>
        <mxCell id="k_0rw0cEwtQ7TOKx8WMM-2" value="&lt;u&gt;ProductID&amp;nbsp;&lt;/u&gt;" style="ellipse;whiteSpace=wrap;html=1;fontSize=22;" parent="1" vertex="1">
          <mxGeometry x="610" y="515" width="180" height="70" as="geometry" />
        </mxCell>
        <mxCell id="k_0rw0cEwtQ7TOKx8WMM-3" value="ProductName" style="ellipse;whiteSpace=wrap;html=1;fontSize=22;" parent="1" vertex="1">
          <mxGeometry x="600" y="399.99999999999994" width="180" height="70" as="geometry" />
        </mxCell>
        <mxCell id="k_0rw0cEwtQ7TOKx8WMM-4" value="Price" style="ellipse;whiteSpace=wrap;html=1;fontSize=22;" parent="1" vertex="1">
          <mxGeometry x="550" y="299.99999999999994" width="180" height="70" as="geometry" />
        </mxCell>
        <mxCell id="k_0rw0cEwtQ7TOKx8WMM-15" style="edgeStyle=none;rounded=0;orthogonalLoop=1;jettySize=auto;html=1;exitX=0.5;exitY=1;exitDx=0;exitDy=0;entryX=0.25;entryY=0;entryDx=0;entryDy=0;strokeColor=default;strokeWidth=2;align=center;verticalAlign=middle;fontFamily=Helvetica;fontSize=12;fontColor=default;labelBackgroundColor=default;endArrow=none;endFill=0;" parent="1" source="k_0rw0cEwtQ7TOKx8WMM-5" target="k_0rw0cEwtQ7TOKx8WMM-1" edge="1">
          <mxGeometry relative="1" as="geometry" />
        </mxCell>
        <mxCell id="k_0rw0cEwtQ7TOKx8WMM-5" value="StockQuantity" style="ellipse;whiteSpace=wrap;html=1;fontSize=22;" parent="1" vertex="1">
          <mxGeometry x="550" y="159.99999999999994" width="180" height="70" as="geometry" />
        </mxCell>
        <mxCell id="k_0rw0cEwtQ7TOKx8WMM-16" style="edgeStyle=none;rounded=0;orthogonalLoop=1;jettySize=auto;html=1;exitX=0.5;exitY=1;exitDx=0;exitDy=0;entryX=0.5;entryY=0;entryDx=0;entryDy=0;strokeColor=default;strokeWidth=2;align=center;verticalAlign=middle;fontFamily=Helvetica;fontSize=12;fontColor=default;labelBackgroundColor=default;endArrow=none;endFill=0;" parent="1" source="k_0rw0cEwtQ7TOKx8WMM-6" target="k_0rw0cEwtQ7TOKx8WMM-1" edge="1">
          <mxGeometry relative="1" as="geometry" />
        </mxCell>
        <mxCell id="k_0rw0cEwtQ7TOKx8WMM-6" value="Description" style="ellipse;whiteSpace=wrap;html=1;fontSize=22;" parent="1" vertex="1">
          <mxGeometry x="810" y="129.99999999999994" width="180" height="70" as="geometry" />
        </mxCell>
        <mxCell id="k_0rw0cEwtQ7TOKx8WMM-9" style="edgeStyle=none;rounded=0;orthogonalLoop=1;jettySize=auto;html=1;exitX=0;exitY=0.75;exitDx=0;exitDy=0;strokeColor=default;align=center;verticalAlign=middle;fontFamily=Helvetica;fontSize=12;fontColor=default;labelBackgroundColor=default;endArrow=none;endFill=0;strokeWidth=2;entryX=1;entryY=0.5;entryDx=0;entryDy=0;" parent="1" source="k_0rw0cEwtQ7TOKx8WMM-1" target="k_0rw0cEwtQ7TOKx8WMM-2" edge="1">
          <mxGeometry relative="1" as="geometry">
            <mxPoint x="917" y="421" as="targetPoint" />
            <mxPoint x="1240" y="454" as="sourcePoint" />
          </mxGeometry>
        </mxCell>
        <mxCell id="k_0rw0cEwtQ7TOKx8WMM-10" style="edgeStyle=none;rounded=0;orthogonalLoop=1;jettySize=auto;html=1;exitX=0;exitY=0.5;exitDx=0;exitDy=0;strokeColor=default;align=center;verticalAlign=middle;fontFamily=Helvetica;fontSize=12;fontColor=default;labelBackgroundColor=default;endArrow=none;endFill=0;strokeWidth=2;entryX=1;entryY=0.5;entryDx=0;entryDy=0;" parent="1" source="k_0rw0cEwtQ7TOKx8WMM-1" target="k_0rw0cEwtQ7TOKx8WMM-3" edge="1">
          <mxGeometry relative="1" as="geometry">
            <mxPoint x="860" y="515" as="targetPoint" />
            <mxPoint x="930" y="450" as="sourcePoint" />
          </mxGeometry>
        </mxCell>
        <mxCell id="k_0rw0cEwtQ7TOKx8WMM-11" style="edgeStyle=none;rounded=0;orthogonalLoop=1;jettySize=auto;html=1;exitX=0;exitY=0.25;exitDx=0;exitDy=0;strokeColor=default;align=center;verticalAlign=middle;fontFamily=Helvetica;fontSize=12;fontColor=default;labelBackgroundColor=default;endArrow=none;endFill=0;strokeWidth=2;entryX=1;entryY=1;entryDx=0;entryDy=0;" parent="1" source="k_0rw0cEwtQ7TOKx8WMM-1" target="k_0rw0cEwtQ7TOKx8WMM-4" edge="1">
          <mxGeometry relative="1" as="geometry">
            <mxPoint x="790" y="385" as="targetPoint" />
            <mxPoint x="930" y="423" as="sourcePoint" />
          </mxGeometry>
        </mxCell>
        <mxCell id="k_0rw0cEwtQ7TOKx8WMM-24" style="edgeStyle=none;rounded=0;orthogonalLoop=1;jettySize=auto;html=1;exitX=1;exitY=0;exitDx=0;exitDy=0;entryX=0;entryY=0.5;entryDx=0;entryDy=0;strokeColor=default;strokeWidth=2;align=center;verticalAlign=middle;fontFamily=Helvetica;fontSize=12;fontColor=default;labelBackgroundColor=default;endArrow=none;endFill=0;" parent="1" source="k_0rw0cEwtQ7TOKx8WMM-17" target="k_0rw0cEwtQ7TOKx8WMM-20" edge="1">
          <mxGeometry relative="1" as="geometry" />
        </mxCell>
        <mxCell id="k_0rw0cEwtQ7TOKx8WMM-17" value="&lt;b&gt;&lt;font style=&quot;font-size: 36px;&quot;&gt;OrderItem&lt;/font&gt;&lt;/b&gt;" style="rounded=1;whiteSpace=wrap;html=1;strokeWidth=2;" parent="1" vertex="1">
          <mxGeometry x="2170" y="2030" width="280" height="110" as="geometry" />
        </mxCell>
        <mxCell id="k_0rw0cEwtQ7TOKx8WMM-22" style="edgeStyle=none;rounded=0;orthogonalLoop=1;jettySize=auto;html=1;exitX=0.5;exitY=1;exitDx=0;exitDy=0;entryX=0.25;entryY=0;entryDx=0;entryDy=0;strokeColor=default;strokeWidth=2;align=center;verticalAlign=middle;fontFamily=Helvetica;fontSize=12;fontColor=default;labelBackgroundColor=default;endArrow=none;endFill=0;" parent="1" source="k_0rw0cEwtQ7TOKx8WMM-18" target="k_0rw0cEwtQ7TOKx8WMM-17" edge="1">
          <mxGeometry relative="1" as="geometry" />
        </mxCell>
        <mxCell id="k_0rw0cEwtQ7TOKx8WMM-18" value="OrderItemID" style="ellipse;whiteSpace=wrap;html=1;fontSize=22;fontStyle=4" parent="1" vertex="1">
          <mxGeometry x="2140" y="1850" width="180" height="70" as="geometry" />
        </mxCell>
        <mxCell id="k_0rw0cEwtQ7TOKx8WMM-23" style="edgeStyle=none;rounded=0;orthogonalLoop=1;jettySize=auto;html=1;exitX=0;exitY=1;exitDx=0;exitDy=0;entryX=0.5;entryY=0;entryDx=0;entryDy=0;strokeColor=default;strokeWidth=2;align=center;verticalAlign=middle;fontFamily=Helvetica;fontSize=12;fontColor=default;labelBackgroundColor=default;endArrow=none;endFill=0;" parent="1" source="k_0rw0cEwtQ7TOKx8WMM-19" target="k_0rw0cEwtQ7TOKx8WMM-17" edge="1">
          <mxGeometry relative="1" as="geometry" />
        </mxCell>
        <mxCell id="k_0rw0cEwtQ7TOKx8WMM-19" value="Quantity" style="ellipse;whiteSpace=wrap;html=1;fontSize=22;" parent="1" vertex="1">
          <mxGeometry x="2380" y="1860" width="180" height="70" as="geometry" />
        </mxCell>
        <mxCell id="k_0rw0cEwtQ7TOKx8WMM-20" value="UnitPrice" style="ellipse;whiteSpace=wrap;html=1;fontSize=22;" parent="1" vertex="1">
          <mxGeometry x="2570" y="1980" width="180" height="70" as="geometry" />
        </mxCell>
        <mxCell id="k_0rw0cEwtQ7TOKx8WMM-25" style="edgeStyle=none;rounded=0;orthogonalLoop=1;jettySize=auto;html=1;exitX=0;exitY=0;exitDx=0;exitDy=0;entryX=1;entryY=0.5;entryDx=0;entryDy=0;strokeColor=default;strokeWidth=2;align=center;verticalAlign=middle;fontFamily=Helvetica;fontSize=12;fontColor=default;labelBackgroundColor=default;endArrow=none;endFill=0;" parent="1" source="k_0rw0cEwtQ7TOKx8WMM-21" target="k_0rw0cEwtQ7TOKx8WMM-17" edge="1">
          <mxGeometry relative="1" as="geometry" />
        </mxCell>
        <mxCell id="k_0rw0cEwtQ7TOKx8WMM-21" value="TotalPrice " style="ellipse;whiteSpace=wrap;html=1;fontSize=22;" parent="1" vertex="1">
          <mxGeometry x="2560" y="2110" width="180" height="70" as="geometry" />
        </mxCell>
        <mxCell id="k_0rw0cEwtQ7TOKx8WMM-49" style="edgeStyle=none;rounded=0;orthogonalLoop=1;jettySize=auto;html=1;exitX=0.75;exitY=0;exitDx=0;exitDy=0;entryX=0;entryY=0.5;entryDx=0;entryDy=0;strokeColor=default;strokeWidth=2;align=center;verticalAlign=middle;fontFamily=Helvetica;fontSize=12;fontColor=default;labelBackgroundColor=default;endArrow=none;endFill=0;" parent="1" source="k_0rw0cEwtQ7TOKx8WMM-26" target="k_0rw0cEwtQ7TOKx8WMM-34" edge="1">
          <mxGeometry relative="1" as="geometry" />
        </mxCell>
        <mxCell id="k_0rw0cEwtQ7TOKx8WMM-50" style="edgeStyle=none;rounded=0;orthogonalLoop=1;jettySize=auto;html=1;exitX=1;exitY=0;exitDx=0;exitDy=0;entryX=0;entryY=0.5;entryDx=0;entryDy=0;strokeColor=default;strokeWidth=2;align=center;verticalAlign=middle;fontFamily=Helvetica;fontSize=12;fontColor=default;labelBackgroundColor=default;endArrow=none;endFill=0;" parent="1" source="k_0rw0cEwtQ7TOKx8WMM-26" target="k_0rw0cEwtQ7TOKx8WMM-33" edge="1">
          <mxGeometry relative="1" as="geometry" />
        </mxCell>
        <mxCell id="k_0rw0cEwtQ7TOKx8WMM-102" style="edgeStyle=orthogonalEdgeStyle;rounded=0;orthogonalLoop=1;jettySize=auto;html=1;exitX=1;exitY=0.5;exitDx=0;exitDy=0;entryX=0;entryY=0.5;entryDx=0;entryDy=0;strokeColor=default;strokeWidth=2;align=center;verticalAlign=middle;fontFamily=Helvetica;fontSize=12;fontColor=default;labelBackgroundColor=default;endArrow=none;endFill=0;" parent="1" source="k_0rw0cEwtQ7TOKx8WMM-26" target="k_0rw0cEwtQ7TOKx8WMM-101" edge="1">
          <mxGeometry relative="1" as="geometry" />
        </mxCell>
        <mxCell id="k_0rw0cEwtQ7TOKx8WMM-26" value="Supplier" style="rounded=1;whiteSpace=wrap;html=1;strokeWidth=2;fontStyle=1;fontSize=36;" parent="1" vertex="1">
          <mxGeometry x="925" y="900" width="280" height="110" as="geometry" />
        </mxCell>
        <mxCell id="k_0rw0cEwtQ7TOKx8WMM-88" style="edgeStyle=none;rounded=0;orthogonalLoop=1;jettySize=auto;html=1;exitX=0.75;exitY=0;exitDx=0;exitDy=0;entryX=0;entryY=1;entryDx=0;entryDy=0;strokeColor=default;strokeWidth=2;align=center;verticalAlign=middle;fontFamily=Helvetica;fontSize=12;fontColor=default;labelBackgroundColor=default;endArrow=none;endFill=0;" parent="1" source="k_0rw0cEwtQ7TOKx8WMM-27" target="k_0rw0cEwtQ7TOKx8WMM-85" edge="1">
          <mxGeometry relative="1" as="geometry" />
        </mxCell>
        <mxCell id="k_0rw0cEwtQ7TOKx8WMM-27" value="Category" style="rounded=1;whiteSpace=wrap;html=1;strokeWidth=2;fontStyle=1;fontSize=36;" parent="1" vertex="1">
          <mxGeometry x="2100" y="330" width="280" height="110" as="geometry" />
        </mxCell>
        <mxCell id="k_0rw0cEwtQ7TOKx8WMM-94" style="edgeStyle=none;rounded=0;orthogonalLoop=1;jettySize=auto;html=1;exitX=0;exitY=0.5;exitDx=0;exitDy=0;entryX=1;entryY=0.5;entryDx=0;entryDy=0;strokeColor=default;strokeWidth=2;align=center;verticalAlign=middle;fontFamily=Helvetica;fontSize=12;fontColor=default;labelBackgroundColor=default;endArrow=none;endFill=0;" parent="1" source="k_0rw0cEwtQ7TOKx8WMM-28" target="k_0rw0cEwtQ7TOKx8WMM-90" edge="1">
          <mxGeometry relative="1" as="geometry" />
        </mxCell>
        <mxCell id="k_0rw0cEwtQ7TOKx8WMM-95" style="edgeStyle=none;rounded=0;orthogonalLoop=1;jettySize=auto;html=1;exitX=0.25;exitY=0;exitDx=0;exitDy=0;entryX=1;entryY=1;entryDx=0;entryDy=0;strokeColor=default;strokeWidth=2;align=center;verticalAlign=middle;fontFamily=Helvetica;fontSize=12;fontColor=default;labelBackgroundColor=default;endArrow=none;endFill=0;" parent="1" source="k_0rw0cEwtQ7TOKx8WMM-28" target="k_0rw0cEwtQ7TOKx8WMM-91" edge="1">
          <mxGeometry relative="1" as="geometry" />
        </mxCell>
        <mxCell id="k_0rw0cEwtQ7TOKx8WMM-96" style="edgeStyle=none;rounded=0;orthogonalLoop=1;jettySize=auto;html=1;exitX=0.5;exitY=0;exitDx=0;exitDy=0;entryX=0.5;entryY=1;entryDx=0;entryDy=0;strokeColor=default;strokeWidth=2;align=center;verticalAlign=middle;fontFamily=Helvetica;fontSize=12;fontColor=default;labelBackgroundColor=default;endArrow=none;endFill=0;" parent="1" source="k_0rw0cEwtQ7TOKx8WMM-28" target="k_0rw0cEwtQ7TOKx8WMM-92" edge="1">
          <mxGeometry relative="1" as="geometry" />
        </mxCell>
        <mxCell id="k_0rw0cEwtQ7TOKx8WMM-118" style="edgeStyle=orthogonalEdgeStyle;rounded=0;orthogonalLoop=1;jettySize=auto;html=1;exitX=1;exitY=0.5;exitDx=0;exitDy=0;entryX=0;entryY=0.5;entryDx=0;entryDy=0;strokeColor=default;strokeWidth=2;align=center;verticalAlign=middle;fontFamily=Helvetica;fontSize=12;fontColor=default;labelBackgroundColor=default;endArrow=none;endFill=0;" parent="1" source="k_0rw0cEwtQ7TOKx8WMM-28" target="k_0rw0cEwtQ7TOKx8WMM-115" edge="1">
          <mxGeometry relative="1" as="geometry" />
        </mxCell>
        <mxCell id="k_0rw0cEwtQ7TOKx8WMM-28" value="Payment" style="rounded=1;whiteSpace=wrap;html=1;strokeWidth=2;fontStyle=1;fontSize=36;" parent="1" vertex="1">
          <mxGeometry x="910" y="2040" width="280" height="110" as="geometry" />
        </mxCell>
        <mxCell id="k_0rw0cEwtQ7TOKx8WMM-79" style="edgeStyle=none;rounded=0;orthogonalLoop=1;jettySize=auto;html=1;exitX=0;exitY=0.25;exitDx=0;exitDy=0;entryX=1;entryY=0.5;entryDx=0;entryDy=0;strokeColor=default;strokeWidth=2;align=center;verticalAlign=middle;fontFamily=Helvetica;fontSize=12;fontColor=default;labelBackgroundColor=default;endArrow=none;endFill=0;" parent="1" source="k_0rw0cEwtQ7TOKx8WMM-29" target="k_0rw0cEwtQ7TOKx8WMM-73" edge="1">
          <mxGeometry relative="1" as="geometry" />
        </mxCell>
        <mxCell id="k_0rw0cEwtQ7TOKx8WMM-116" style="edgeStyle=orthogonalEdgeStyle;rounded=0;orthogonalLoop=1;jettySize=auto;html=1;exitX=0.75;exitY=1;exitDx=0;exitDy=0;entryX=0;entryY=0.5;entryDx=0;entryDy=0;strokeColor=default;strokeWidth=2;align=center;verticalAlign=middle;fontFamily=Helvetica;fontSize=12;fontColor=default;labelBackgroundColor=default;endArrow=none;endFill=0;" parent="1" source="k_0rw0cEwtQ7TOKx8WMM-29" target="k_0rw0cEwtQ7TOKx8WMM-108" edge="1">
          <mxGeometry relative="1" as="geometry" />
        </mxCell>
        <mxCell id="k_0rw0cEwtQ7TOKx8WMM-29" value="Order" style="rounded=1;whiteSpace=wrap;html=1;strokeWidth=2;fontStyle=1;fontSize=36;" parent="1" vertex="1">
          <mxGeometry x="930" y="1454" width="280" height="110" as="geometry" />
        </mxCell>
        <mxCell id="k_0rw0cEwtQ7TOKx8WMM-65" style="edgeStyle=none;rounded=0;orthogonalLoop=1;jettySize=auto;html=1;exitX=0.75;exitY=0;exitDx=0;exitDy=0;entryX=0.5;entryY=1;entryDx=0;entryDy=0;strokeColor=default;strokeWidth=2;align=center;verticalAlign=middle;fontFamily=Helvetica;fontSize=12;fontColor=default;labelBackgroundColor=default;endArrow=none;endFill=0;" parent="1" source="k_0rw0cEwtQ7TOKx8WMM-30" target="k_0rw0cEwtQ7TOKx8WMM-57" edge="1">
          <mxGeometry relative="1" as="geometry" />
        </mxCell>
        <mxCell id="k_0rw0cEwtQ7TOKx8WMM-66" style="edgeStyle=none;rounded=0;orthogonalLoop=1;jettySize=auto;html=1;exitX=1;exitY=0;exitDx=0;exitDy=0;entryX=0;entryY=0.5;entryDx=0;entryDy=0;strokeColor=default;strokeWidth=2;align=center;verticalAlign=middle;fontFamily=Helvetica;fontSize=12;fontColor=default;labelBackgroundColor=default;endArrow=none;endFill=0;" parent="1" source="k_0rw0cEwtQ7TOKx8WMM-30" target="k_0rw0cEwtQ7TOKx8WMM-58" edge="1">
          <mxGeometry relative="1" as="geometry" />
        </mxCell>
        <mxCell id="k_0rw0cEwtQ7TOKx8WMM-67" style="edgeStyle=none;rounded=0;orthogonalLoop=1;jettySize=auto;html=1;exitX=1;exitY=0.25;exitDx=0;exitDy=0;entryX=0;entryY=0.5;entryDx=0;entryDy=0;strokeColor=default;strokeWidth=2;align=center;verticalAlign=middle;fontFamily=Helvetica;fontSize=12;fontColor=default;labelBackgroundColor=default;endArrow=none;endFill=0;" parent="1" source="k_0rw0cEwtQ7TOKx8WMM-30" target="k_0rw0cEwtQ7TOKx8WMM-59" edge="1">
          <mxGeometry relative="1" as="geometry" />
        </mxCell>
        <mxCell id="k_0rw0cEwtQ7TOKx8WMM-68" style="edgeStyle=none;rounded=0;orthogonalLoop=1;jettySize=auto;html=1;exitX=1;exitY=0.5;exitDx=0;exitDy=0;entryX=0;entryY=0.5;entryDx=0;entryDy=0;strokeColor=default;strokeWidth=2;align=center;verticalAlign=middle;fontFamily=Helvetica;fontSize=12;fontColor=default;labelBackgroundColor=default;endArrow=none;endFill=0;" parent="1" source="k_0rw0cEwtQ7TOKx8WMM-30" target="k_0rw0cEwtQ7TOKx8WMM-60" edge="1">
          <mxGeometry relative="1" as="geometry" />
        </mxCell>
        <mxCell id="k_0rw0cEwtQ7TOKx8WMM-69" style="edgeStyle=none;rounded=0;orthogonalLoop=1;jettySize=auto;html=1;exitX=1;exitY=0.75;exitDx=0;exitDy=0;entryX=0;entryY=0.5;entryDx=0;entryDy=0;strokeColor=default;strokeWidth=2;align=center;verticalAlign=middle;fontFamily=Helvetica;fontSize=12;fontColor=default;labelBackgroundColor=default;endArrow=none;endFill=0;" parent="1" source="k_0rw0cEwtQ7TOKx8WMM-30" target="k_0rw0cEwtQ7TOKx8WMM-53" edge="1">
          <mxGeometry relative="1" as="geometry" />
        </mxCell>
        <mxCell id="k_0rw0cEwtQ7TOKx8WMM-70" style="edgeStyle=none;rounded=0;orthogonalLoop=1;jettySize=auto;html=1;exitX=1;exitY=1;exitDx=0;exitDy=0;entryX=0;entryY=0.5;entryDx=0;entryDy=0;strokeColor=default;strokeWidth=2;align=center;verticalAlign=middle;fontFamily=Helvetica;fontSize=12;fontColor=default;labelBackgroundColor=default;endArrow=none;endFill=0;" parent="1" source="k_0rw0cEwtQ7TOKx8WMM-30" target="k_0rw0cEwtQ7TOKx8WMM-52" edge="1">
          <mxGeometry relative="1" as="geometry" />
        </mxCell>
        <mxCell id="PQpFnVnvUSLF5VVCA4I8-18" style="edgeStyle=orthogonalEdgeStyle;shape=connector;rounded=0;orthogonalLoop=1;jettySize=auto;html=1;exitX=0.75;exitY=1;exitDx=0;exitDy=0;entryX=0;entryY=0.5;entryDx=0;entryDy=0;strokeColor=default;strokeWidth=2;align=center;verticalAlign=middle;fontFamily=Helvetica;fontSize=12;fontColor=default;labelBackgroundColor=default;endArrow=none;endFill=0;" parent="1" source="k_0rw0cEwtQ7TOKx8WMM-30" target="PQpFnVnvUSLF5VVCA4I8-17" edge="1">
          <mxGeometry relative="1" as="geometry" />
        </mxCell>
        <mxCell id="PQpFnVnvUSLF5VVCA4I8-26" style="edgeStyle=orthogonalEdgeStyle;shape=connector;rounded=0;orthogonalLoop=1;jettySize=auto;html=1;exitX=0.5;exitY=1;exitDx=0;exitDy=0;entryX=0;entryY=0.5;entryDx=0;entryDy=0;strokeColor=default;strokeWidth=2;align=center;verticalAlign=middle;fontFamily=Helvetica;fontSize=12;fontColor=default;labelBackgroundColor=default;endArrow=none;endFill=0;" parent="1" source="k_0rw0cEwtQ7TOKx8WMM-30" target="PQpFnVnvUSLF5VVCA4I8-24" edge="1">
          <mxGeometry relative="1" as="geometry" />
        </mxCell>
        <mxCell id="k_0rw0cEwtQ7TOKx8WMM-30" value="Customer" style="rounded=1;whiteSpace=wrap;html=1;strokeWidth=2;fontStyle=1;fontSize=36;" parent="1" vertex="1">
          <mxGeometry x="2070" y="780" width="280" height="110" as="geometry" />
        </mxCell>
        <mxCell id="k_0rw0cEwtQ7TOKx8WMM-42" style="edgeStyle=none;rounded=0;orthogonalLoop=1;jettySize=auto;html=1;exitX=1;exitY=0.5;exitDx=0;exitDy=0;entryX=0;entryY=1;entryDx=0;entryDy=0;strokeColor=default;strokeWidth=2;align=center;verticalAlign=middle;fontFamily=Helvetica;fontSize=12;fontColor=default;labelBackgroundColor=default;endArrow=none;endFill=0;" parent="1" source="k_0rw0cEwtQ7TOKx8WMM-32" target="k_0rw0cEwtQ7TOKx8WMM-26" edge="1">
          <mxGeometry relative="1" as="geometry" />
        </mxCell>
        <mxCell id="k_0rw0cEwtQ7TOKx8WMM-32" value="SupplierID " style="ellipse;whiteSpace=wrap;html=1;fontSize=22;fontStyle=4" parent="1" vertex="1">
          <mxGeometry x="520" y="1080" width="180" height="70" as="geometry" />
        </mxCell>
        <mxCell id="k_0rw0cEwtQ7TOKx8WMM-33" value="ZipCode" style="ellipse;whiteSpace=wrap;html=1;fontSize=22;" parent="1" vertex="1">
          <mxGeometry x="1460" y="820" width="180" height="70" as="geometry" />
        </mxCell>
        <mxCell id="k_0rw0cEwtQ7TOKx8WMM-34" value="State" style="ellipse;whiteSpace=wrap;html=1;fontSize=22;" parent="1" vertex="1">
          <mxGeometry x="1380" y="740" width="180" height="70" as="geometry" />
        </mxCell>
        <mxCell id="k_0rw0cEwtQ7TOKx8WMM-43" style="edgeStyle=none;rounded=0;orthogonalLoop=1;jettySize=auto;html=1;exitX=1;exitY=0.5;exitDx=0;exitDy=0;entryX=0;entryY=0.75;entryDx=0;entryDy=0;strokeColor=default;strokeWidth=2;align=center;verticalAlign=middle;fontFamily=Helvetica;fontSize=12;fontColor=default;labelBackgroundColor=default;endArrow=none;endFill=0;" parent="1" source="k_0rw0cEwtQ7TOKx8WMM-35" target="k_0rw0cEwtQ7TOKx8WMM-26" edge="1">
          <mxGeometry relative="1" as="geometry" />
        </mxCell>
        <mxCell id="k_0rw0cEwtQ7TOKx8WMM-35" value="SupplierName" style="ellipse;whiteSpace=wrap;html=1;fontSize=22;" parent="1" vertex="1">
          <mxGeometry x="500" y="980" width="180" height="70" as="geometry" />
        </mxCell>
        <mxCell id="k_0rw0cEwtQ7TOKx8WMM-44" style="edgeStyle=none;rounded=0;orthogonalLoop=1;jettySize=auto;html=1;exitX=1;exitY=0.5;exitDx=0;exitDy=0;entryX=0;entryY=0.5;entryDx=0;entryDy=0;strokeColor=default;strokeWidth=2;align=center;verticalAlign=middle;fontFamily=Helvetica;fontSize=12;fontColor=default;labelBackgroundColor=default;endArrow=none;endFill=0;" parent="1" source="k_0rw0cEwtQ7TOKx8WMM-36" target="k_0rw0cEwtQ7TOKx8WMM-26" edge="1">
          <mxGeometry relative="1" as="geometry" />
        </mxCell>
        <mxCell id="k_0rw0cEwtQ7TOKx8WMM-36" value="ContactName" style="ellipse;whiteSpace=wrap;html=1;fontSize=22;" parent="1" vertex="1">
          <mxGeometry x="520" y="880" width="180" height="70" as="geometry" />
        </mxCell>
        <mxCell id="k_0rw0cEwtQ7TOKx8WMM-45" style="edgeStyle=none;rounded=0;orthogonalLoop=1;jettySize=auto;html=1;exitX=1;exitY=0.5;exitDx=0;exitDy=0;entryX=0;entryY=0.25;entryDx=0;entryDy=0;strokeColor=default;strokeWidth=2;align=center;verticalAlign=middle;fontFamily=Helvetica;fontSize=12;fontColor=default;labelBackgroundColor=default;endArrow=none;endFill=0;" parent="1" source="k_0rw0cEwtQ7TOKx8WMM-37" target="k_0rw0cEwtQ7TOKx8WMM-26" edge="1">
          <mxGeometry relative="1" as="geometry" />
        </mxCell>
        <mxCell id="k_0rw0cEwtQ7TOKx8WMM-37" value="ContactEmail" style="ellipse;whiteSpace=wrap;html=1;fontSize=22;" parent="1" vertex="1">
          <mxGeometry x="550" y="760" width="180" height="70" as="geometry" />
        </mxCell>
        <mxCell id="k_0rw0cEwtQ7TOKx8WMM-46" style="edgeStyle=none;rounded=0;orthogonalLoop=1;jettySize=auto;html=1;exitX=1;exitY=1;exitDx=0;exitDy=0;entryX=0;entryY=0;entryDx=0;entryDy=0;strokeColor=default;strokeWidth=2;align=center;verticalAlign=middle;fontFamily=Helvetica;fontSize=12;fontColor=default;labelBackgroundColor=default;endArrow=none;endFill=0;" parent="1" source="k_0rw0cEwtQ7TOKx8WMM-38" target="k_0rw0cEwtQ7TOKx8WMM-26" edge="1">
          <mxGeometry relative="1" as="geometry" />
        </mxCell>
        <mxCell id="k_0rw0cEwtQ7TOKx8WMM-38" value="Phone" style="ellipse;whiteSpace=wrap;html=1;fontSize=22;" parent="1" vertex="1">
          <mxGeometry x="720" y="700" width="180" height="70" as="geometry" />
        </mxCell>
        <mxCell id="k_0rw0cEwtQ7TOKx8WMM-47" style="edgeStyle=none;rounded=0;orthogonalLoop=1;jettySize=auto;html=1;exitX=0.5;exitY=1;exitDx=0;exitDy=0;entryX=0.25;entryY=0;entryDx=0;entryDy=0;strokeColor=default;strokeWidth=2;align=center;verticalAlign=middle;fontFamily=Helvetica;fontSize=12;fontColor=default;labelBackgroundColor=default;endArrow=none;endFill=0;" parent="1" source="k_0rw0cEwtQ7TOKx8WMM-39" target="k_0rw0cEwtQ7TOKx8WMM-26" edge="1">
          <mxGeometry relative="1" as="geometry" />
        </mxCell>
        <mxCell id="k_0rw0cEwtQ7TOKx8WMM-39" value="Address" style="ellipse;whiteSpace=wrap;html=1;fontSize=22;" parent="1" vertex="1">
          <mxGeometry x="960" y="680" width="180" height="70" as="geometry" />
        </mxCell>
        <mxCell id="k_0rw0cEwtQ7TOKx8WMM-48" style="edgeStyle=none;rounded=0;orthogonalLoop=1;jettySize=auto;html=1;exitX=0;exitY=1;exitDx=0;exitDy=0;entryX=0.5;entryY=0;entryDx=0;entryDy=0;strokeColor=default;strokeWidth=2;align=center;verticalAlign=middle;fontFamily=Helvetica;fontSize=12;fontColor=default;labelBackgroundColor=default;endArrow=none;endFill=0;" parent="1" source="k_0rw0cEwtQ7TOKx8WMM-40" target="k_0rw0cEwtQ7TOKx8WMM-26" edge="1">
          <mxGeometry relative="1" as="geometry" />
        </mxCell>
        <mxCell id="k_0rw0cEwtQ7TOKx8WMM-40" value="City" style="ellipse;whiteSpace=wrap;html=1;fontSize=22;" parent="1" vertex="1">
          <mxGeometry x="1190" y="690" width="180" height="70" as="geometry" />
        </mxCell>
        <mxCell id="k_0rw0cEwtQ7TOKx8WMM-62" style="edgeStyle=none;rounded=0;orthogonalLoop=1;jettySize=auto;html=1;exitX=1;exitY=1;exitDx=0;exitDy=0;entryX=0;entryY=0;entryDx=0;entryDy=0;strokeColor=default;strokeWidth=2;align=center;verticalAlign=middle;fontFamily=Helvetica;fontSize=12;fontColor=default;labelBackgroundColor=default;endArrow=none;endFill=0;" parent="1" source="k_0rw0cEwtQ7TOKx8WMM-51" target="k_0rw0cEwtQ7TOKx8WMM-30" edge="1">
          <mxGeometry relative="1" as="geometry" />
        </mxCell>
        <mxCell id="k_0rw0cEwtQ7TOKx8WMM-51" value="FirstName" style="ellipse;whiteSpace=wrap;html=1;fontSize=22;" parent="1" vertex="1">
          <mxGeometry x="1880" y="630" width="180" height="70" as="geometry" />
        </mxCell>
        <mxCell id="k_0rw0cEwtQ7TOKx8WMM-52" value="RegistrationDate" style="ellipse;whiteSpace=wrap;html=1;fontSize=22;" parent="1" vertex="1">
          <mxGeometry x="2420" y="1080" width="180" height="70" as="geometry" />
        </mxCell>
        <mxCell id="k_0rw0cEwtQ7TOKx8WMM-53" value="ZipCode" style="ellipse;whiteSpace=wrap;html=1;fontSize=22;" parent="1" vertex="1">
          <mxGeometry x="2530" y="1010" width="180" height="70" as="geometry" />
        </mxCell>
        <mxCell id="k_0rw0cEwtQ7TOKx8WMM-61" style="edgeStyle=none;rounded=0;orthogonalLoop=1;jettySize=auto;html=1;exitX=1;exitY=1;exitDx=0;exitDy=0;entryX=0;entryY=0.25;entryDx=0;entryDy=0;strokeColor=default;strokeWidth=2;align=center;verticalAlign=middle;fontFamily=Helvetica;fontSize=12;fontColor=default;labelBackgroundColor=default;endArrow=none;endFill=0;" parent="1" source="k_0rw0cEwtQ7TOKx8WMM-54" target="k_0rw0cEwtQ7TOKx8WMM-30" edge="1">
          <mxGeometry relative="1" as="geometry" />
        </mxCell>
        <mxCell id="k_0rw0cEwtQ7TOKx8WMM-54" value="CustomerID " style="ellipse;whiteSpace=wrap;html=1;fontSize=22;fontStyle=4" parent="1" vertex="1">
          <mxGeometry x="1840" y="720" width="180" height="70" as="geometry" />
        </mxCell>
        <mxCell id="k_0rw0cEwtQ7TOKx8WMM-63" style="edgeStyle=none;rounded=0;orthogonalLoop=1;jettySize=auto;html=1;exitX=0.5;exitY=1;exitDx=0;exitDy=0;entryX=0.25;entryY=0;entryDx=0;entryDy=0;strokeColor=default;strokeWidth=2;align=center;verticalAlign=middle;fontFamily=Helvetica;fontSize=12;fontColor=default;labelBackgroundColor=default;endArrow=none;endFill=0;" parent="1" source="k_0rw0cEwtQ7TOKx8WMM-55" target="k_0rw0cEwtQ7TOKx8WMM-30" edge="1">
          <mxGeometry relative="1" as="geometry" />
        </mxCell>
        <mxCell id="k_0rw0cEwtQ7TOKx8WMM-55" value="LastName" style="ellipse;whiteSpace=wrap;html=1;fontSize=22;" parent="1" vertex="1">
          <mxGeometry x="2030" y="560" width="180" height="70" as="geometry" />
        </mxCell>
        <mxCell id="k_0rw0cEwtQ7TOKx8WMM-64" style="edgeStyle=none;rounded=0;orthogonalLoop=1;jettySize=auto;html=1;exitX=0.5;exitY=1;exitDx=0;exitDy=0;entryX=0.574;entryY=-0.045;entryDx=0;entryDy=0;strokeColor=default;strokeWidth=2;align=center;verticalAlign=middle;fontFamily=Helvetica;fontSize=12;fontColor=default;labelBackgroundColor=default;endArrow=none;endFill=0;entryPerimeter=0;" parent="1" source="k_0rw0cEwtQ7TOKx8WMM-56" target="k_0rw0cEwtQ7TOKx8WMM-30" edge="1">
          <mxGeometry relative="1" as="geometry" />
        </mxCell>
        <mxCell id="k_0rw0cEwtQ7TOKx8WMM-56" value="Email" style="ellipse;whiteSpace=wrap;html=1;fontSize=22;" parent="1" vertex="1">
          <mxGeometry x="2230" y="580" width="180" height="70" as="geometry" />
        </mxCell>
        <mxCell id="k_0rw0cEwtQ7TOKx8WMM-57" value="Phone" style="ellipse;whiteSpace=wrap;html=1;fontSize=22;" parent="1" vertex="1">
          <mxGeometry x="2420" y="640" width="180" height="70" as="geometry" />
        </mxCell>
        <mxCell id="k_0rw0cEwtQ7TOKx8WMM-58" value="Address" style="ellipse;whiteSpace=wrap;html=1;fontSize=22;fillColor=default;" parent="1" vertex="1">
          <mxGeometry x="2600" y="700" width="180" height="70" as="geometry" />
        </mxCell>
        <mxCell id="k_0rw0cEwtQ7TOKx8WMM-59" value="City" style="ellipse;whiteSpace=wrap;html=1;fontSize=22;" parent="1" vertex="1">
          <mxGeometry x="2630" y="810" width="180" height="70" as="geometry" />
        </mxCell>
        <mxCell id="k_0rw0cEwtQ7TOKx8WMM-60" value="State" style="ellipse;whiteSpace=wrap;html=1;fontSize=22;" parent="1" vertex="1">
          <mxGeometry x="2610" y="930" width="180" height="70" as="geometry" />
        </mxCell>
        <mxCell id="k_0rw0cEwtQ7TOKx8WMM-77" style="edgeStyle=none;rounded=0;orthogonalLoop=1;jettySize=auto;html=1;exitX=1;exitY=0.5;exitDx=0;exitDy=0;entryX=0;entryY=0.75;entryDx=0;entryDy=0;strokeColor=default;strokeWidth=2;align=center;verticalAlign=middle;fontFamily=Helvetica;fontSize=12;fontColor=default;labelBackgroundColor=default;endArrow=none;endFill=0;" parent="1" source="k_0rw0cEwtQ7TOKx8WMM-71" target="k_0rw0cEwtQ7TOKx8WMM-29" edge="1">
          <mxGeometry relative="1" as="geometry" />
        </mxCell>
        <mxCell id="k_0rw0cEwtQ7TOKx8WMM-71" value="OrderID " style="ellipse;whiteSpace=wrap;html=1;fontSize=22;fontStyle=4" parent="1" vertex="1">
          <mxGeometry x="630" y="1564" width="180" height="70" as="geometry" />
        </mxCell>
        <mxCell id="k_0rw0cEwtQ7TOKx8WMM-78" style="edgeStyle=none;rounded=0;orthogonalLoop=1;jettySize=auto;html=1;exitX=1;exitY=0.5;exitDx=0;exitDy=0;entryX=0;entryY=0.5;entryDx=0;entryDy=0;strokeColor=default;strokeWidth=2;align=center;verticalAlign=middle;fontFamily=Helvetica;fontSize=12;fontColor=default;labelBackgroundColor=default;endArrow=none;endFill=0;" parent="1" source="k_0rw0cEwtQ7TOKx8WMM-72" target="k_0rw0cEwtQ7TOKx8WMM-29" edge="1">
          <mxGeometry relative="1" as="geometry" />
        </mxCell>
        <mxCell id="k_0rw0cEwtQ7TOKx8WMM-72" value="OrderDate" style="ellipse;whiteSpace=wrap;html=1;fontSize=22;" parent="1" vertex="1">
          <mxGeometry x="540" y="1454" width="180" height="70" as="geometry" />
        </mxCell>
        <mxCell id="k_0rw0cEwtQ7TOKx8WMM-73" value="ShipDate" style="ellipse;whiteSpace=wrap;html=1;fontSize=22;" parent="1" vertex="1">
          <mxGeometry x="560" y="1354" width="180" height="70" as="geometry" />
        </mxCell>
        <mxCell id="k_0rw0cEwtQ7TOKx8WMM-80" style="edgeStyle=none;rounded=0;orthogonalLoop=1;jettySize=auto;html=1;exitX=1;exitY=1;exitDx=0;exitDy=0;entryX=0;entryY=0;entryDx=0;entryDy=0;strokeColor=default;strokeWidth=2;align=center;verticalAlign=middle;fontFamily=Helvetica;fontSize=12;fontColor=default;labelBackgroundColor=default;endArrow=none;endFill=0;" parent="1" source="k_0rw0cEwtQ7TOKx8WMM-74" target="k_0rw0cEwtQ7TOKx8WMM-29" edge="1">
          <mxGeometry relative="1" as="geometry" />
        </mxCell>
        <mxCell id="k_0rw0cEwtQ7TOKx8WMM-74" value="ShippingAddress" style="ellipse;whiteSpace=wrap;html=1;fontSize=22;" parent="1" vertex="1">
          <mxGeometry x="670" y="1254" width="180" height="70" as="geometry" />
        </mxCell>
        <mxCell id="k_0rw0cEwtQ7TOKx8WMM-81" style="edgeStyle=none;rounded=0;orthogonalLoop=1;jettySize=auto;html=1;exitX=0.5;exitY=1;exitDx=0;exitDy=0;entryX=0.25;entryY=0;entryDx=0;entryDy=0;strokeColor=default;strokeWidth=2;align=center;verticalAlign=middle;fontFamily=Helvetica;fontSize=12;fontColor=default;labelBackgroundColor=default;endArrow=none;endFill=0;" parent="1" source="k_0rw0cEwtQ7TOKx8WMM-75" target="k_0rw0cEwtQ7TOKx8WMM-29" edge="1">
          <mxGeometry relative="1" as="geometry" />
        </mxCell>
        <mxCell id="k_0rw0cEwtQ7TOKx8WMM-75" value="TotalAmount" style="ellipse;whiteSpace=wrap;html=1;fontSize=22;" parent="1" vertex="1">
          <mxGeometry x="890" y="1230" width="180" height="70" as="geometry" />
        </mxCell>
        <mxCell id="k_0rw0cEwtQ7TOKx8WMM-82" style="edgeStyle=none;rounded=0;orthogonalLoop=1;jettySize=auto;html=1;exitX=0;exitY=1;exitDx=0;exitDy=0;entryX=0.5;entryY=0;entryDx=0;entryDy=0;strokeColor=default;strokeWidth=2;align=center;verticalAlign=middle;fontFamily=Helvetica;fontSize=12;fontColor=default;labelBackgroundColor=default;endArrow=none;endFill=0;" parent="1" source="k_0rw0cEwtQ7TOKx8WMM-76" target="k_0rw0cEwtQ7TOKx8WMM-29" edge="1">
          <mxGeometry relative="1" as="geometry" />
        </mxCell>
        <mxCell id="k_0rw0cEwtQ7TOKx8WMM-76" value="Status" style="ellipse;whiteSpace=wrap;html=1;fontSize=22;" parent="1" vertex="1">
          <mxGeometry x="1130" y="1244" width="180" height="70" as="geometry" />
        </mxCell>
        <mxCell id="k_0rw0cEwtQ7TOKx8WMM-86" style="edgeStyle=none;rounded=0;orthogonalLoop=1;jettySize=auto;html=1;exitX=1;exitY=1;exitDx=0;exitDy=0;strokeColor=default;strokeWidth=2;align=center;verticalAlign=middle;fontFamily=Helvetica;fontSize=12;fontColor=default;labelBackgroundColor=default;endArrow=none;endFill=0;entryX=0.25;entryY=0;entryDx=0;entryDy=0;" parent="1" source="k_0rw0cEwtQ7TOKx8WMM-83" target="k_0rw0cEwtQ7TOKx8WMM-27" edge="1">
          <mxGeometry relative="1" as="geometry">
            <mxPoint x="2100" y="330" as="targetPoint" />
          </mxGeometry>
        </mxCell>
        <mxCell id="k_0rw0cEwtQ7TOKx8WMM-83" value="CategoryID " style="ellipse;whiteSpace=wrap;html=1;fontSize=22;fontStyle=4" parent="1" vertex="1">
          <mxGeometry x="1930" y="200" width="180" height="70" as="geometry" />
        </mxCell>
        <mxCell id="k_0rw0cEwtQ7TOKx8WMM-87" style="edgeStyle=none;rounded=0;orthogonalLoop=1;jettySize=auto;html=1;exitX=0.5;exitY=1;exitDx=0;exitDy=0;entryX=0.5;entryY=0;entryDx=0;entryDy=0;strokeColor=default;strokeWidth=2;align=center;verticalAlign=middle;fontFamily=Helvetica;fontSize=12;fontColor=default;labelBackgroundColor=default;endArrow=none;endFill=0;" parent="1" source="k_0rw0cEwtQ7TOKx8WMM-84" target="k_0rw0cEwtQ7TOKx8WMM-27" edge="1">
          <mxGeometry relative="1" as="geometry" />
        </mxCell>
        <mxCell id="k_0rw0cEwtQ7TOKx8WMM-84" value="CategoryName" style="ellipse;whiteSpace=wrap;html=1;fontSize=22;" parent="1" vertex="1">
          <mxGeometry x="2190" y="190" width="180" height="70" as="geometry" />
        </mxCell>
        <mxCell id="k_0rw0cEwtQ7TOKx8WMM-85" value="Description" style="ellipse;whiteSpace=wrap;html=1;fontSize=22;" parent="1" vertex="1">
          <mxGeometry x="2420" y="230" width="180" height="70" as="geometry" />
        </mxCell>
        <mxCell id="k_0rw0cEwtQ7TOKx8WMM-93" style="edgeStyle=none;rounded=0;orthogonalLoop=1;jettySize=auto;html=1;exitX=1;exitY=0.5;exitDx=0;exitDy=0;strokeColor=default;strokeWidth=2;align=center;verticalAlign=middle;fontFamily=Helvetica;fontSize=12;fontColor=default;labelBackgroundColor=default;endArrow=none;endFill=0;" parent="1" source="k_0rw0cEwtQ7TOKx8WMM-89" edge="1">
          <mxGeometry relative="1" as="geometry">
            <mxPoint x="910" y="2123" as="targetPoint" />
          </mxGeometry>
        </mxCell>
        <mxCell id="k_0rw0cEwtQ7TOKx8WMM-89" value="PaymentID " style="ellipse;whiteSpace=wrap;html=1;fontSize=22;fontStyle=4" parent="1" vertex="1">
          <mxGeometry x="630" y="2200" width="180" height="70" as="geometry" />
        </mxCell>
        <mxCell id="k_0rw0cEwtQ7TOKx8WMM-90" value="PaymentDate" style="ellipse;whiteSpace=wrap;html=1;fontSize=22;" parent="1" vertex="1">
          <mxGeometry x="620" y="2060" width="180" height="70" as="geometry" />
        </mxCell>
        <mxCell id="k_0rw0cEwtQ7TOKx8WMM-91" value="PaymentMethod" style="ellipse;whiteSpace=wrap;html=1;fontSize=22;" parent="1" vertex="1">
          <mxGeometry x="700" y="1920" width="180" height="70" as="geometry" />
        </mxCell>
        <mxCell id="k_0rw0cEwtQ7TOKx8WMM-92" value="Amount" style="ellipse;whiteSpace=wrap;html=1;fontSize=22;" parent="1" vertex="1">
          <mxGeometry x="940" y="1910" width="175" height="70" as="geometry" />
        </mxCell>
        <mxCell id="k_0rw0cEwtQ7TOKx8WMM-98" style="edgeStyle=orthogonalEdgeStyle;rounded=0;orthogonalLoop=1;jettySize=auto;html=1;exitX=1;exitY=0.5;exitDx=0;exitDy=0;strokeColor=default;strokeWidth=2;align=center;verticalAlign=middle;fontFamily=Helvetica;fontSize=12;fontColor=default;labelBackgroundColor=default;endArrow=none;endFill=0;entryX=0;entryY=0.5;entryDx=0;entryDy=0;" parent="1" source="k_0rw0cEwtQ7TOKx8WMM-97" target="k_0rw0cEwtQ7TOKx8WMM-27" edge="1">
          <mxGeometry relative="1" as="geometry">
            <mxPoint x="1930" y="360" as="targetPoint" />
          </mxGeometry>
        </mxCell>
        <mxCell id="k_0rw0cEwtQ7TOKx8WMM-100" style="edgeStyle=orthogonalEdgeStyle;rounded=0;orthogonalLoop=1;jettySize=auto;html=1;exitX=0;exitY=0.5;exitDx=0;exitDy=0;entryX=1;entryY=0.5;entryDx=0;entryDy=0;strokeColor=default;strokeWidth=2;align=center;verticalAlign=middle;fontFamily=Helvetica;fontSize=12;fontColor=default;labelBackgroundColor=default;endArrow=none;endFill=0;" parent="1" source="k_0rw0cEwtQ7TOKx8WMM-97" target="k_0rw0cEwtQ7TOKx8WMM-1" edge="1">
          <mxGeometry relative="1" as="geometry" />
        </mxCell>
        <mxCell id="k_0rw0cEwtQ7TOKx8WMM-97" value="&lt;font style=&quot;font-size: 23px;&quot;&gt;&lt;b&gt;Belongs&lt;/b&gt;&lt;/font&gt;" style="rhombus;whiteSpace=wrap;html=1;strokeColor=default;align=center;verticalAlign=middle;fontFamily=Helvetica;fontSize=12;fontColor=default;labelBackgroundColor=default;fillColor=default;strokeWidth=2;" parent="1" vertex="1">
          <mxGeometry x="1590" y="325" width="150" height="120" as="geometry" />
        </mxCell>
        <mxCell id="k_0rw0cEwtQ7TOKx8WMM-103" style="edgeStyle=orthogonalEdgeStyle;rounded=0;orthogonalLoop=1;jettySize=auto;html=1;exitX=0.5;exitY=0;exitDx=0;exitDy=0;entryX=0.5;entryY=1;entryDx=0;entryDy=0;strokeColor=default;strokeWidth=2;align=center;verticalAlign=middle;fontFamily=Helvetica;fontSize=12;fontColor=default;labelBackgroundColor=default;endArrow=none;endFill=0;" parent="1" source="k_0rw0cEwtQ7TOKx8WMM-101" target="k_0rw0cEwtQ7TOKx8WMM-1" edge="1">
          <mxGeometry relative="1" as="geometry">
            <Array as="points">
              <mxPoint x="1675" y="640" />
              <mxPoint x="1060" y="640" />
            </Array>
          </mxGeometry>
        </mxCell>
        <mxCell id="k_0rw0cEwtQ7TOKx8WMM-101" value="&lt;font style=&quot;font-size: 23px;&quot;&gt;&lt;b&gt;Supplies&lt;/b&gt;&lt;/font&gt;" style="rhombus;whiteSpace=wrap;html=1;strokeColor=default;align=center;verticalAlign=middle;fontFamily=Helvetica;fontSize=12;fontColor=default;labelBackgroundColor=default;fillColor=default;strokeWidth=2;" parent="1" vertex="1">
          <mxGeometry x="1600" y="895" width="150" height="120" as="geometry" />
        </mxCell>
        <mxCell id="k_0rw0cEwtQ7TOKx8WMM-105" style="edgeStyle=orthogonalEdgeStyle;rounded=0;orthogonalLoop=1;jettySize=auto;html=1;exitX=0;exitY=0.5;exitDx=0;exitDy=0;entryX=1;entryY=0.5;entryDx=0;entryDy=0;strokeColor=default;strokeWidth=2;align=center;verticalAlign=middle;fontFamily=Helvetica;fontSize=12;fontColor=default;labelBackgroundColor=default;endArrow=none;endFill=0;" parent="1" source="k_0rw0cEwtQ7TOKx8WMM-104" target="k_0rw0cEwtQ7TOKx8WMM-29" edge="1">
          <mxGeometry relative="1" as="geometry" />
        </mxCell>
        <mxCell id="k_0rw0cEwtQ7TOKx8WMM-106" style="edgeStyle=orthogonalEdgeStyle;rounded=0;orthogonalLoop=1;jettySize=auto;html=1;exitX=1;exitY=0.5;exitDx=0;exitDy=0;entryX=0.25;entryY=1;entryDx=0;entryDy=0;strokeColor=default;strokeWidth=2;align=center;verticalAlign=middle;fontFamily=Helvetica;fontSize=12;fontColor=default;labelBackgroundColor=default;endArrow=none;endFill=0;" parent="1" source="k_0rw0cEwtQ7TOKx8WMM-104" target="k_0rw0cEwtQ7TOKx8WMM-30" edge="1">
          <mxGeometry relative="1" as="geometry" />
        </mxCell>
        <mxCell id="k_0rw0cEwtQ7TOKx8WMM-104" value="&lt;font style=&quot;font-size: 23px;&quot;&gt;&lt;b&gt;Places&lt;/b&gt;&lt;/font&gt;" style="rhombus;whiteSpace=wrap;html=1;strokeColor=default;align=center;verticalAlign=middle;fontFamily=Helvetica;fontSize=12;fontColor=default;labelBackgroundColor=default;fillColor=default;strokeWidth=2;" parent="1" vertex="1">
          <mxGeometry x="1600" y="1449" width="150" height="120" as="geometry" />
        </mxCell>
        <mxCell id="k_0rw0cEwtQ7TOKx8WMM-117" style="edgeStyle=orthogonalEdgeStyle;rounded=0;orthogonalLoop=1;jettySize=auto;html=1;exitX=1;exitY=0.5;exitDx=0;exitDy=0;entryX=0;entryY=0.75;entryDx=0;entryDy=0;strokeColor=default;strokeWidth=2;align=center;verticalAlign=middle;fontFamily=Helvetica;fontSize=12;fontColor=default;labelBackgroundColor=default;endArrow=none;endFill=0;" parent="1" source="k_0rw0cEwtQ7TOKx8WMM-108" target="k_0rw0cEwtQ7TOKx8WMM-17" edge="1">
          <mxGeometry relative="1" as="geometry">
            <Array as="points">
              <mxPoint x="1760" y="1740" />
              <mxPoint x="1760" y="2110" />
              <mxPoint x="2170" y="2110" />
            </Array>
          </mxGeometry>
        </mxCell>
        <mxCell id="k_0rw0cEwtQ7TOKx8WMM-108" value="&lt;font style=&quot;font-size: 23px;&quot;&gt;&lt;b&gt;Include&lt;/b&gt;&lt;/font&gt;" style="rhombus;whiteSpace=wrap;html=1;strokeColor=default;align=center;verticalAlign=middle;fontFamily=Helvetica;fontSize=12;fontColor=default;labelBackgroundColor=default;fillColor=default;strokeWidth=2;" parent="1" vertex="1">
          <mxGeometry x="1600" y="1680" width="150" height="120" as="geometry" />
        </mxCell>
        <mxCell id="k_0rw0cEwtQ7TOKx8WMM-113" style="edgeStyle=orthogonalEdgeStyle;rounded=0;orthogonalLoop=1;jettySize=auto;html=1;exitX=0;exitY=0.5;exitDx=0;exitDy=0;entryX=0.75;entryY=1;entryDx=0;entryDy=0;strokeColor=default;strokeWidth=2;align=center;verticalAlign=middle;fontFamily=Helvetica;fontSize=12;fontColor=default;labelBackgroundColor=default;endArrow=none;endFill=0;" parent="1" source="k_0rw0cEwtQ7TOKx8WMM-112" target="k_0rw0cEwtQ7TOKx8WMM-1" edge="1">
          <mxGeometry relative="1" as="geometry" />
        </mxCell>
        <mxCell id="k_0rw0cEwtQ7TOKx8WMM-114" style="edgeStyle=orthogonalEdgeStyle;rounded=0;orthogonalLoop=1;jettySize=auto;html=1;exitX=1;exitY=0.5;exitDx=0;exitDy=0;entryX=0;entryY=0.25;entryDx=0;entryDy=0;strokeColor=default;strokeWidth=2;align=center;verticalAlign=middle;fontFamily=Helvetica;fontSize=12;fontColor=default;labelBackgroundColor=default;endArrow=none;endFill=0;" parent="1" source="k_0rw0cEwtQ7TOKx8WMM-112" target="k_0rw0cEwtQ7TOKx8WMM-17" edge="1">
          <mxGeometry relative="1" as="geometry">
            <Array as="points">
              <mxPoint x="1790" y="550" />
              <mxPoint x="1790" y="2058" />
            </Array>
          </mxGeometry>
        </mxCell>
        <mxCell id="k_0rw0cEwtQ7TOKx8WMM-112" value="&lt;font style=&quot;font-size: 23px;&quot;&gt;&lt;b&gt;Include&lt;/b&gt;&lt;/font&gt;" style="rhombus;whiteSpace=wrap;html=1;strokeColor=default;align=center;verticalAlign=middle;fontFamily=Helvetica;fontSize=12;fontColor=default;labelBackgroundColor=default;fillColor=default;strokeWidth=2;" parent="1" vertex="1">
          <mxGeometry x="1590" y="490" width="150" height="120" as="geometry" />
        </mxCell>
        <mxCell id="k_0rw0cEwtQ7TOKx8WMM-119" style="edgeStyle=orthogonalEdgeStyle;rounded=0;orthogonalLoop=1;jettySize=auto;html=1;exitX=0.5;exitY=0;exitDx=0;exitDy=0;entryX=0.5;entryY=1;entryDx=0;entryDy=0;strokeColor=default;strokeWidth=2;align=center;verticalAlign=middle;fontFamily=Helvetica;fontSize=12;fontColor=default;labelBackgroundColor=default;endArrow=none;endFill=0;" parent="1" source="k_0rw0cEwtQ7TOKx8WMM-115" target="k_0rw0cEwtQ7TOKx8WMM-29" edge="1">
          <mxGeometry relative="1" as="geometry">
            <Array as="points">
              <mxPoint x="1665" y="1820" />
              <mxPoint x="1070" y="1820" />
            </Array>
          </mxGeometry>
        </mxCell>
        <mxCell id="k_0rw0cEwtQ7TOKx8WMM-115" value="&lt;font style=&quot;font-size: 23px;&quot;&gt;&lt;b&gt;Mades&lt;/b&gt;&lt;/font&gt;" style="rhombus;whiteSpace=wrap;html=1;strokeColor=default;align=center;verticalAlign=middle;fontFamily=Helvetica;fontSize=12;fontColor=default;labelBackgroundColor=default;fillColor=default;strokeWidth=2;" parent="1" vertex="1">
          <mxGeometry x="1590" y="2035" width="150" height="120" as="geometry" />
        </mxCell>
        <mxCell id="k_0rw0cEwtQ7TOKx8WMM-120" value="&lt;b&gt;&lt;font style=&quot;font-size: 20px;&quot;&gt;M&lt;/font&gt;&lt;/b&gt;" style="text;html=1;align=center;verticalAlign=middle;resizable=0;points=[];autosize=1;strokeColor=none;fillColor=none;fontFamily=Helvetica;fontSize=12;fontColor=default;labelBackgroundColor=default;" parent="1" vertex="1">
          <mxGeometry x="1200" y="340" width="40" height="40" as="geometry" />
        </mxCell>
        <mxCell id="7LaxVrVwwIbNa8i8OrR7-16" value="" style="edgeStyle=orthogonalEdgeStyle;rounded=0;orthogonalLoop=1;jettySize=auto;html=1;" parent="1" source="k_0rw0cEwtQ7TOKx8WMM-121" target="k_0rw0cEwtQ7TOKx8WMM-27" edge="1">
          <mxGeometry relative="1" as="geometry" />
        </mxCell>
        <mxCell id="k_0rw0cEwtQ7TOKx8WMM-121" value="&lt;b&gt;&lt;font style=&quot;font-size: 20px;&quot;&gt;1&lt;/font&gt;&lt;/b&gt;" style="text;html=1;align=center;verticalAlign=middle;resizable=0;points=[];autosize=1;strokeColor=none;fillColor=none;fontFamily=Helvetica;fontSize=12;fontColor=default;labelBackgroundColor=default;" parent="1" vertex="1">
          <mxGeometry x="2065" y="340" width="30" height="40" as="geometry" />
        </mxCell>
        <mxCell id="k_0rw0cEwtQ7TOKx8WMM-122" value="&lt;b&gt;&lt;font style=&quot;font-size: 20px;&quot;&gt;M&lt;/font&gt;&lt;/b&gt;" style="text;html=1;align=center;verticalAlign=middle;resizable=0;points=[];autosize=1;strokeColor=none;fillColor=none;fontFamily=Helvetica;fontSize=12;fontColor=default;labelBackgroundColor=default;" parent="1" vertex="1">
          <mxGeometry x="1065" y="445" width="40" height="40" as="geometry" />
        </mxCell>
        <mxCell id="k_0rw0cEwtQ7TOKx8WMM-123" value="&lt;b&gt;&lt;font style=&quot;font-size: 20px;&quot;&gt;1&lt;/font&gt;&lt;/b&gt;" style="text;html=1;align=center;verticalAlign=middle;resizable=0;points=[];autosize=1;strokeColor=none;fillColor=none;fontFamily=Helvetica;fontSize=12;fontColor=default;labelBackgroundColor=default;" parent="1" vertex="1">
          <mxGeometry x="1210" y="910" width="30" height="40" as="geometry" />
        </mxCell>
        <mxCell id="k_0rw0cEwtQ7TOKx8WMM-124" value="&lt;b&gt;&lt;font style=&quot;font-size: 20px;&quot;&gt;1&lt;/font&gt;&lt;/b&gt;" style="text;html=1;align=center;verticalAlign=middle;resizable=0;points=[];autosize=1;strokeColor=none;fillColor=none;fontFamily=Helvetica;fontSize=12;fontColor=default;labelBackgroundColor=default;" parent="1" vertex="1">
          <mxGeometry x="2140" y="890" width="30" height="40" as="geometry" />
        </mxCell>
        <mxCell id="k_0rw0cEwtQ7TOKx8WMM-126" value="&lt;b&gt;&lt;font style=&quot;font-size: 20px;&quot;&gt;M&lt;/font&gt;&lt;/b&gt;" style="text;html=1;align=center;verticalAlign=middle;resizable=0;points=[];autosize=1;strokeColor=none;fillColor=none;fontFamily=Helvetica;fontSize=12;fontColor=default;labelBackgroundColor=default;" parent="1" vertex="1">
          <mxGeometry x="1210" y="1469" width="40" height="40" as="geometry" />
        </mxCell>
        <mxCell id="k_0rw0cEwtQ7TOKx8WMM-127" value="&lt;b&gt;&lt;font style=&quot;font-size: 20px;&quot;&gt;M&lt;/font&gt;&lt;/b&gt;" style="text;html=1;align=center;verticalAlign=middle;resizable=0;points=[];autosize=1;strokeColor=none;fillColor=none;fontFamily=Helvetica;fontSize=12;fontColor=default;labelBackgroundColor=default;" parent="1" vertex="1">
          <mxGeometry x="2130" y="2068" width="40" height="40" as="geometry" />
        </mxCell>
        <mxCell id="k_0rw0cEwtQ7TOKx8WMM-128" value="&lt;b&gt;&lt;font style=&quot;font-size: 20px;&quot;&gt;1&lt;/font&gt;&lt;/b&gt;" style="text;html=1;align=center;verticalAlign=middle;resizable=0;points=[];autosize=1;strokeColor=none;fillColor=none;fontFamily=Helvetica;fontSize=12;fontColor=default;labelBackgroundColor=default;" parent="1" vertex="1">
          <mxGeometry x="1143" y="1568" width="30" height="40" as="geometry" />
        </mxCell>
        <mxCell id="k_0rw0cEwtQ7TOKx8WMM-129" value="&lt;b&gt;&lt;font style=&quot;font-size: 20px;&quot;&gt;M&lt;/font&gt;&lt;/b&gt;" style="text;html=1;align=center;verticalAlign=middle;resizable=0;points=[];autosize=1;strokeColor=none;fillColor=none;fontFamily=Helvetica;fontSize=12;fontColor=default;labelBackgroundColor=default;" parent="1" vertex="1">
          <mxGeometry x="2130" y="2020" width="40" height="40" as="geometry" />
        </mxCell>
        <mxCell id="k_0rw0cEwtQ7TOKx8WMM-130" value="&lt;b&gt;&lt;font style=&quot;font-size: 20px;&quot;&gt;1&lt;/font&gt;&lt;/b&gt;" style="text;html=1;align=center;verticalAlign=middle;resizable=0;points=[];autosize=1;strokeColor=none;fillColor=none;fontFamily=Helvetica;fontSize=12;fontColor=default;labelBackgroundColor=default;" parent="1" vertex="1">
          <mxGeometry x="1130" y="445" width="30" height="40" as="geometry" />
        </mxCell>
        <mxCell id="k_0rw0cEwtQ7TOKx8WMM-131" value="&lt;b&gt;&lt;font style=&quot;font-size: 20px;&quot;&gt;1&lt;/font&gt;&lt;/b&gt;" style="text;html=1;align=center;verticalAlign=middle;resizable=0;points=[];autosize=1;strokeColor=none;fillColor=none;fontFamily=Helvetica;fontSize=12;fontColor=default;labelBackgroundColor=default;" parent="1" vertex="1">
          <mxGeometry x="1190" y="2053" width="30" height="40" as="geometry" />
        </mxCell>
        <mxCell id="k_0rw0cEwtQ7TOKx8WMM-132" value="&lt;b&gt;&lt;font style=&quot;font-size: 20px;&quot;&gt;1&lt;/font&gt;&lt;/b&gt;" style="text;html=1;align=center;verticalAlign=middle;resizable=0;points=[];autosize=1;strokeColor=none;fillColor=none;fontFamily=Helvetica;fontSize=12;fontColor=default;labelBackgroundColor=default;" parent="1" vertex="1">
          <mxGeometry x="1070" y="1569" width="30" height="40" as="geometry" />
        </mxCell>
        <mxCell id="mHnj6x8_Ovtv6P0Yxa4O-2" style="edgeStyle=none;rounded=0;orthogonalLoop=1;jettySize=auto;html=1;exitX=0.75;exitY=0;exitDx=0;exitDy=0;entryX=0;entryY=1;entryDx=0;entryDy=0;strokeColor=default;strokeWidth=2;align=center;verticalAlign=middle;fontFamily=Helvetica;fontSize=12;fontColor=default;labelBackgroundColor=default;endArrow=none;endFill=0;" parent="1" source="mHnj6x8_Ovtv6P0Yxa4O-5" target="mHnj6x8_Ovtv6P0Yxa4O-13" edge="1">
          <mxGeometry relative="1" as="geometry" />
        </mxCell>
        <mxCell id="mHnj6x8_Ovtv6P0Yxa4O-3" style="edgeStyle=none;rounded=0;orthogonalLoop=1;jettySize=auto;html=1;exitX=1;exitY=0.25;exitDx=0;exitDy=0;entryX=0;entryY=0.5;entryDx=0;entryDy=0;strokeColor=default;strokeWidth=2;align=center;verticalAlign=middle;fontFamily=Helvetica;fontSize=12;fontColor=default;labelBackgroundColor=default;endArrow=none;endFill=0;" parent="1" source="mHnj6x8_Ovtv6P0Yxa4O-5" target="mHnj6x8_Ovtv6P0Yxa4O-14" edge="1">
          <mxGeometry relative="1" as="geometry" />
        </mxCell>
        <mxCell id="dRdTeMSeaYYloBceYYoV-57" style="edgeStyle=orthogonalEdgeStyle;rounded=0;orthogonalLoop=1;jettySize=auto;html=1;entryX=0.107;entryY=1.055;entryDx=0;entryDy=0;entryPerimeter=0;endArrow=none;endFill=0;strokeWidth=2;" parent="1" source="dRdTeMSeaYYloBceYYoV-61" target="k_0rw0cEwtQ7TOKx8WMM-29" edge="1">
          <mxGeometry relative="1" as="geometry">
            <mxPoint x="1970.0000000000005" y="2330" as="targetPoint" />
            <Array as="points">
              <mxPoint x="530" y="2310" />
              <mxPoint x="530" y="1760" />
              <mxPoint x="960" y="1760" />
            </Array>
          </mxGeometry>
        </mxCell>
        <mxCell id="mHnj6x8_Ovtv6P0Yxa4O-5" value="Shipping" style="rounded=1;whiteSpace=wrap;html=1;strokeWidth=2;fontStyle=1;fontSize=36;" parent="1" vertex="1">
          <mxGeometry x="3120" y="2030" width="280" height="110" as="geometry" />
        </mxCell>
        <mxCell id="mHnj6x8_Ovtv6P0Yxa4O-8" style="edgeStyle=none;rounded=0;orthogonalLoop=1;jettySize=auto;html=1;exitX=1;exitY=0.5;exitDx=0;exitDy=0;entryX=0;entryY=0.25;entryDx=0;entryDy=0;strokeColor=default;strokeWidth=2;align=center;verticalAlign=middle;fontFamily=Helvetica;fontSize=12;fontColor=default;labelBackgroundColor=default;endArrow=none;endFill=0;" parent="1" source="mHnj6x8_Ovtv6P0Yxa4O-9" target="mHnj6x8_Ovtv6P0Yxa4O-5" edge="1">
          <mxGeometry relative="1" as="geometry" />
        </mxCell>
        <mxCell id="mHnj6x8_Ovtv6P0Yxa4O-9" value="ShippingID " style="ellipse;whiteSpace=wrap;html=1;fontSize=22;fontStyle=4" parent="1" vertex="1">
          <mxGeometry x="2830" y="1990" width="180" height="70" as="geometry" />
        </mxCell>
        <mxCell id="mHnj6x8_Ovtv6P0Yxa4O-11" style="edgeStyle=none;rounded=0;orthogonalLoop=1;jettySize=auto;html=1;exitX=0.5;exitY=1;exitDx=0;exitDy=0;entryX=0.5;entryY=0;entryDx=0;entryDy=0;strokeColor=default;strokeWidth=2;align=center;verticalAlign=middle;fontFamily=Helvetica;fontSize=12;fontColor=default;labelBackgroundColor=default;endArrow=none;endFill=0;" parent="1" source="mHnj6x8_Ovtv6P0Yxa4O-12" target="mHnj6x8_Ovtv6P0Yxa4O-5" edge="1">
          <mxGeometry relative="1" as="geometry" />
        </mxCell>
        <mxCell id="mHnj6x8_Ovtv6P0Yxa4O-12" value="ShippingDate" style="ellipse;whiteSpace=wrap;html=1;fontSize=22;" parent="1" vertex="1">
          <mxGeometry x="3265" y="1800" width="180" height="70" as="geometry" />
        </mxCell>
        <mxCell id="mHnj6x8_Ovtv6P0Yxa4O-13" value="ShippedDate" style="ellipse;whiteSpace=wrap;html=1;fontSize=22;" parent="1" vertex="1">
          <mxGeometry x="3460" y="1850" width="180" height="70" as="geometry" />
        </mxCell>
        <mxCell id="mHnj6x8_Ovtv6P0Yxa4O-14" value="DiliveredDate" style="ellipse;whiteSpace=wrap;html=1;fontSize=22;" parent="1" vertex="1">
          <mxGeometry x="3630" y="1940" width="180" height="70" as="geometry" />
        </mxCell>
        <mxCell id="PQpFnVnvUSLF5VVCA4I8-33" style="edgeStyle=none;shape=connector;rounded=0;orthogonalLoop=1;jettySize=auto;html=1;exitX=0;exitY=0.5;exitDx=0;exitDy=0;entryX=1;entryY=0.5;entryDx=0;entryDy=0;strokeColor=default;strokeWidth=2;align=center;verticalAlign=middle;fontFamily=Helvetica;fontSize=12;fontColor=default;labelBackgroundColor=default;endArrow=none;endFill=0;" parent="1" source="mHnj6x8_Ovtv6P0Yxa4O-15" target="mHnj6x8_Ovtv6P0Yxa4O-5" edge="1">
          <mxGeometry relative="1" as="geometry" />
        </mxCell>
        <mxCell id="mHnj6x8_Ovtv6P0Yxa4O-15" value="ShippingCost" style="ellipse;whiteSpace=wrap;html=1;fontSize=22;" parent="1" vertex="1">
          <mxGeometry x="3660" y="2050" width="180" height="70" as="geometry" />
        </mxCell>
        <mxCell id="mHnj6x8_Ovtv6P0Yxa4O-16" value="&lt;b&gt;&lt;font style=&quot;font-size: 20px;&quot;&gt;1&lt;/font&gt;&lt;/b&gt;" style="text;html=1;align=center;verticalAlign=middle;resizable=0;points=[];autosize=1;strokeColor=none;fillColor=none;fontFamily=Helvetica;fontSize=12;fontColor=default;labelBackgroundColor=default;" parent="1" vertex="1">
          <mxGeometry x="3226" y="2140" width="30" height="40" as="geometry" />
        </mxCell>
        <mxCell id="PQpFnVnvUSLF5VVCA4I8-32" style="edgeStyle=none;shape=connector;rounded=0;orthogonalLoop=1;jettySize=auto;html=1;exitX=0.5;exitY=1;exitDx=0;exitDy=0;entryX=0.25;entryY=0;entryDx=0;entryDy=0;strokeColor=default;strokeWidth=2;align=center;verticalAlign=middle;fontFamily=Helvetica;fontSize=12;fontColor=default;labelBackgroundColor=default;endArrow=none;endFill=0;" parent="1" source="mHnj6x8_Ovtv6P0Yxa4O-17" target="mHnj6x8_Ovtv6P0Yxa4O-5" edge="1">
          <mxGeometry relative="1" as="geometry" />
        </mxCell>
        <mxCell id="mHnj6x8_Ovtv6P0Yxa4O-17" value="TrackingNumber" style="ellipse;whiteSpace=wrap;html=1;fontSize=22;" parent="1" vertex="1">
          <mxGeometry x="3060" y="1820" width="180" height="70" as="geometry" />
        </mxCell>
        <mxCell id="PQpFnVnvUSLF5VVCA4I8-31" style="edgeStyle=none;shape=connector;rounded=0;orthogonalLoop=1;jettySize=auto;html=1;exitX=1;exitY=1;exitDx=0;exitDy=0;entryX=0;entryY=0;entryDx=0;entryDy=0;strokeColor=default;strokeWidth=2;align=center;verticalAlign=middle;fontFamily=Helvetica;fontSize=12;fontColor=default;labelBackgroundColor=default;endArrow=none;endFill=0;" parent="1" source="dRdTeMSeaYYloBceYYoV-1" target="mHnj6x8_Ovtv6P0Yxa4O-5" edge="1">
          <mxGeometry relative="1" as="geometry" />
        </mxCell>
        <mxCell id="dRdTeMSeaYYloBceYYoV-1" value="Carrier" style="ellipse;whiteSpace=wrap;html=1;fontSize=22;" parent="1" vertex="1">
          <mxGeometry x="2890" y="1880" width="180" height="70" as="geometry" />
        </mxCell>
        <mxCell id="dRdTeMSeaYYloBceYYoV-3" style="edgeStyle=none;rounded=0;orthogonalLoop=1;jettySize=auto;html=1;exitX=0.25;exitY=0;exitDx=0;exitDy=0;entryX=0.5;entryY=1;entryDx=0;entryDy=0;strokeColor=default;strokeWidth=2;align=center;verticalAlign=middle;fontFamily=Helvetica;fontSize=12;fontColor=default;labelBackgroundColor=default;endArrow=none;endFill=0;" parent="1" source="dRdTeMSeaYYloBceYYoV-6" target="dRdTeMSeaYYloBceYYoV-14" edge="1">
          <mxGeometry relative="1" as="geometry" />
        </mxCell>
        <mxCell id="dRdTeMSeaYYloBceYYoV-4" style="edgeStyle=none;rounded=0;orthogonalLoop=1;jettySize=auto;html=1;exitX=0.75;exitY=0;exitDx=0;exitDy=0;entryX=0.5;entryY=1;entryDx=0;entryDy=0;strokeColor=default;strokeWidth=2;align=center;verticalAlign=middle;fontFamily=Helvetica;fontSize=12;fontColor=default;labelBackgroundColor=default;endArrow=none;endFill=0;" parent="1" source="dRdTeMSeaYYloBceYYoV-6" target="dRdTeMSeaYYloBceYYoV-15" edge="1">
          <mxGeometry relative="1" as="geometry" />
        </mxCell>
        <mxCell id="dRdTeMSeaYYloBceYYoV-5" style="edgeStyle=none;rounded=0;orthogonalLoop=1;jettySize=auto;html=1;exitX=1;exitY=0.25;exitDx=0;exitDy=0;entryX=0;entryY=1;entryDx=0;entryDy=0;strokeColor=default;strokeWidth=2;align=center;verticalAlign=middle;fontFamily=Helvetica;fontSize=12;fontColor=default;labelBackgroundColor=default;endArrow=none;endFill=0;" parent="1" source="dRdTeMSeaYYloBceYYoV-6" target="dRdTeMSeaYYloBceYYoV-16" edge="1">
          <mxGeometry relative="1" as="geometry" />
        </mxCell>
        <mxCell id="dRdTeMSeaYYloBceYYoV-6" value="Review" style="rounded=1;whiteSpace=wrap;html=1;strokeWidth=2;fontStyle=1;fontSize=36;" parent="1" vertex="1">
          <mxGeometry x="3090" y="330" width="280" height="110" as="geometry" />
        </mxCell>
        <mxCell id="dRdTeMSeaYYloBceYYoV-9" style="edgeStyle=none;rounded=0;orthogonalLoop=1;jettySize=auto;html=1;exitX=1;exitY=1;exitDx=0;exitDy=0;entryX=0;entryY=0;entryDx=0;entryDy=0;strokeColor=default;strokeWidth=2;align=center;verticalAlign=middle;fontFamily=Helvetica;fontSize=12;fontColor=default;labelBackgroundColor=default;endArrow=none;endFill=0;" parent="1" source="dRdTeMSeaYYloBceYYoV-10" target="dRdTeMSeaYYloBceYYoV-6" edge="1">
          <mxGeometry relative="1" as="geometry" />
        </mxCell>
        <mxCell id="dRdTeMSeaYYloBceYYoV-10" value="ReviewID" style="ellipse;whiteSpace=wrap;html=1;fontSize=22;fontStyle=4" parent="1" vertex="1">
          <mxGeometry x="2890" y="230" width="180" height="70" as="geometry" />
        </mxCell>
        <mxCell id="dRdTeMSeaYYloBceYYoV-14" value="Rating" style="ellipse;whiteSpace=wrap;html=1;fontSize=22;" parent="1" vertex="1">
          <mxGeometry x="3070" y="200" width="180" height="70" as="geometry" />
        </mxCell>
        <mxCell id="dRdTeMSeaYYloBceYYoV-15" value="Comment" style="ellipse;whiteSpace=wrap;html=1;fontSize=22;" parent="1" vertex="1">
          <mxGeometry x="3270" y="200" width="180" height="70" as="geometry" />
        </mxCell>
        <mxCell id="dRdTeMSeaYYloBceYYoV-16" value="ReviewDate" style="ellipse;whiteSpace=wrap;html=1;fontSize=22;" parent="1" vertex="1">
          <mxGeometry x="3460" y="255" width="180" height="70" as="geometry" />
        </mxCell>
        <mxCell id="PQpFnVnvUSLF5VVCA4I8-4" style="edgeStyle=orthogonalEdgeStyle;shape=connector;rounded=0;orthogonalLoop=1;jettySize=auto;html=1;entryX=0.5;entryY=0;entryDx=0;entryDy=0;strokeColor=default;strokeWidth=2;align=center;verticalAlign=middle;fontFamily=Helvetica;fontSize=12;fontColor=default;labelBackgroundColor=default;endArrow=none;endFill=0;" parent="1" source="dRdTeMSeaYYloBceYYoV-21" target="PQpFnVnvUSLF5VVCA4I8-2" edge="1">
          <mxGeometry relative="1" as="geometry" />
        </mxCell>
        <mxCell id="dRdTeMSeaYYloBceYYoV-21" value="&lt;b&gt;&lt;font style=&quot;font-size: 36px;&quot;&gt;Cart&lt;/font&gt;&lt;/b&gt;" style="rounded=1;whiteSpace=wrap;html=1;strokeWidth=2;" parent="1" vertex="1">
          <mxGeometry x="3200" y="780" width="280" height="110" as="geometry" />
        </mxCell>
        <mxCell id="dRdTeMSeaYYloBceYYoV-22" style="edgeStyle=none;rounded=0;orthogonalLoop=1;jettySize=auto;html=1;exitX=0.5;exitY=1;exitDx=0;exitDy=0;entryX=0.25;entryY=0;entryDx=0;entryDy=0;strokeColor=default;strokeWidth=2;align=center;verticalAlign=middle;fontFamily=Helvetica;fontSize=12;fontColor=default;labelBackgroundColor=default;endArrow=none;endFill=0;" parent="1" source="dRdTeMSeaYYloBceYYoV-23" target="dRdTeMSeaYYloBceYYoV-21" edge="1">
          <mxGeometry relative="1" as="geometry" />
        </mxCell>
        <mxCell id="dRdTeMSeaYYloBceYYoV-23" value="CartID" style="ellipse;whiteSpace=wrap;html=1;fontSize=22;fontStyle=4" parent="1" vertex="1">
          <mxGeometry x="3170" y="660" width="180" height="70" as="geometry" />
        </mxCell>
        <mxCell id="dRdTeMSeaYYloBceYYoV-32" value="&lt;b&gt;&lt;font style=&quot;font-size: 36px;&quot;&gt;CartItem&lt;/font&gt;&lt;/b&gt;" style="rounded=1;whiteSpace=wrap;html=1;strokeWidth=2;" parent="1" vertex="1">
          <mxGeometry x="3200" y="1244" width="280" height="110" as="geometry" />
        </mxCell>
        <mxCell id="dRdTeMSeaYYloBceYYoV-33" style="edgeStyle=none;rounded=0;orthogonalLoop=1;jettySize=auto;html=1;exitX=0;exitY=0.5;exitDx=0;exitDy=0;strokeColor=default;strokeWidth=2;align=center;verticalAlign=middle;fontFamily=Helvetica;fontSize=12;fontColor=default;labelBackgroundColor=default;endArrow=none;endFill=0;entryX=1;entryY=0.75;entryDx=0;entryDy=0;" parent="1" source="dRdTeMSeaYYloBceYYoV-34" target="dRdTeMSeaYYloBceYYoV-32" edge="1">
          <mxGeometry relative="1" as="geometry">
            <mxPoint x="3270" y="1370" as="targetPoint" />
          </mxGeometry>
        </mxCell>
        <mxCell id="dRdTeMSeaYYloBceYYoV-34" value="Quantity" style="ellipse;whiteSpace=wrap;html=1;fontSize=22;fontStyle=0" parent="1" vertex="1">
          <mxGeometry x="3590" y="1241" width="180" height="70" as="geometry" />
        </mxCell>
        <mxCell id="dRdTeMSeaYYloBceYYoV-38" style="edgeStyle=none;rounded=0;orthogonalLoop=1;jettySize=auto;html=1;exitX=0;exitY=0.5;exitDx=0;exitDy=0;entryX=1;entryY=0;entryDx=0;entryDy=0;strokeColor=default;strokeWidth=2;align=center;verticalAlign=middle;fontFamily=Helvetica;fontSize=12;fontColor=default;labelBackgroundColor=default;endArrow=none;endFill=0;" parent="1" source="dRdTeMSeaYYloBceYYoV-39" target="dRdTeMSeaYYloBceYYoV-32" edge="1">
          <mxGeometry relative="1" as="geometry" />
        </mxCell>
        <mxCell id="dRdTeMSeaYYloBceYYoV-39" value="&lt;span style=&quot;text-decoration-line: underline;&quot;&gt;CartItemID&lt;/span&gt;" style="ellipse;whiteSpace=wrap;html=1;fontSize=22;" parent="1" vertex="1">
          <mxGeometry x="3530" y="1130" width="180" height="70" as="geometry" />
        </mxCell>
        <mxCell id="PQpFnVnvUSLF5VVCA4I8-25" style="edgeStyle=orthogonalEdgeStyle;shape=connector;rounded=0;orthogonalLoop=1;jettySize=auto;html=1;exitX=1;exitY=0.5;exitDx=0;exitDy=0;entryX=0.5;entryY=1;entryDx=0;entryDy=0;strokeColor=default;strokeWidth=2;align=center;verticalAlign=middle;fontFamily=Helvetica;fontSize=12;fontColor=default;labelBackgroundColor=default;endArrow=none;endFill=0;" parent="1" source="dRdTeMSeaYYloBceYYoV-61" target="mHnj6x8_Ovtv6P0Yxa4O-5" edge="1">
          <mxGeometry relative="1" as="geometry" />
        </mxCell>
        <mxCell id="dRdTeMSeaYYloBceYYoV-61" value="&lt;font style=&quot;font-size: 23px;&quot;&gt;&lt;b&gt;Mades&lt;/b&gt;&lt;/font&gt;" style="rhombus;whiteSpace=wrap;html=1;strokeColor=default;align=center;verticalAlign=middle;fontFamily=Helvetica;fontSize=12;fontColor=default;labelBackgroundColor=default;fillColor=default;strokeWidth=2;" parent="1" vertex="1">
          <mxGeometry x="1690" y="2250" width="150" height="120" as="geometry" />
        </mxCell>
        <mxCell id="dRdTeMSeaYYloBceYYoV-68" value="&lt;b&gt;&lt;font style=&quot;font-size: 20px;&quot;&gt;1&lt;/font&gt;&lt;/b&gt;" style="text;html=1;align=center;verticalAlign=middle;resizable=0;points=[];autosize=1;strokeColor=none;fillColor=none;fontFamily=Helvetica;fontSize=12;fontColor=default;labelBackgroundColor=default;" parent="1" vertex="1">
          <mxGeometry x="1130" y="290" width="30" height="40" as="geometry" />
        </mxCell>
        <mxCell id="dRdTeMSeaYYloBceYYoV-72" value="&lt;b&gt;&lt;font style=&quot;font-size: 20px;&quot;&gt;1&lt;/font&gt;&lt;/b&gt;" style="text;html=1;align=center;verticalAlign=middle;resizable=0;points=[];autosize=1;strokeColor=none;fillColor=none;fontFamily=Helvetica;fontSize=12;fontColor=default;labelBackgroundColor=default;" parent="1" vertex="1">
          <mxGeometry x="960" y="1569" width="30" height="40" as="geometry" />
        </mxCell>
        <mxCell id="PQpFnVnvUSLF5VVCA4I8-5" style="edgeStyle=orthogonalEdgeStyle;shape=connector;rounded=0;orthogonalLoop=1;jettySize=auto;html=1;exitX=0.5;exitY=1;exitDx=0;exitDy=0;entryX=0.5;entryY=0;entryDx=0;entryDy=0;strokeColor=default;strokeWidth=2;align=center;verticalAlign=middle;fontFamily=Helvetica;fontSize=12;fontColor=default;labelBackgroundColor=default;endArrow=none;endFill=0;" parent="1" source="PQpFnVnvUSLF5VVCA4I8-2" target="dRdTeMSeaYYloBceYYoV-32" edge="1">
          <mxGeometry relative="1" as="geometry" />
        </mxCell>
        <mxCell id="PQpFnVnvUSLF5VVCA4I8-2" value="&lt;font style=&quot;font-size: 23px;&quot;&gt;&lt;b&gt;Contain&lt;/b&gt;&lt;/font&gt;" style="rhombus;whiteSpace=wrap;html=1;strokeColor=default;align=center;verticalAlign=middle;fontFamily=Helvetica;fontSize=12;fontColor=default;labelBackgroundColor=default;fillColor=default;strokeWidth=2;" parent="1" vertex="1">
          <mxGeometry x="3265" y="1015" width="150" height="120" as="geometry" />
        </mxCell>
        <mxCell id="PQpFnVnvUSLF5VVCA4I8-6" value="&lt;b&gt;&lt;font style=&quot;font-size: 20px;&quot;&gt;1&lt;/font&gt;&lt;/b&gt;" style="text;html=1;align=center;verticalAlign=middle;resizable=0;points=[];autosize=1;strokeColor=none;fillColor=none;fontFamily=Helvetica;fontSize=12;fontColor=default;labelBackgroundColor=default;" parent="1" vertex="1">
          <mxGeometry x="3340" y="890" width="30" height="40" as="geometry" />
        </mxCell>
        <mxCell id="PQpFnVnvUSLF5VVCA4I8-7" value="&lt;b&gt;&lt;font style=&quot;font-size: 20px;&quot;&gt;M&lt;/font&gt;&lt;/b&gt;" style="text;html=1;align=center;verticalAlign=middle;resizable=0;points=[];autosize=1;strokeColor=none;fillColor=none;fontFamily=Helvetica;fontSize=12;fontColor=default;labelBackgroundColor=default;" parent="1" vertex="1">
          <mxGeometry x="3340" y="1204" width="40" height="40" as="geometry" />
        </mxCell>
        <mxCell id="PQpFnVnvUSLF5VVCA4I8-9" style="edgeStyle=orthogonalEdgeStyle;shape=connector;rounded=0;orthogonalLoop=1;jettySize=auto;html=1;entryX=0;entryY=0.5;entryDx=0;entryDy=0;strokeColor=default;strokeWidth=2;align=center;verticalAlign=middle;fontFamily=Helvetica;fontSize=12;fontColor=default;labelBackgroundColor=default;endArrow=none;endFill=0;" parent="1" source="PQpFnVnvUSLF5VVCA4I8-8" target="dRdTeMSeaYYloBceYYoV-32" edge="1">
          <mxGeometry relative="1" as="geometry" />
        </mxCell>
        <mxCell id="PQpFnVnvUSLF5VVCA4I8-10" style="edgeStyle=orthogonalEdgeStyle;shape=connector;rounded=0;orthogonalLoop=1;jettySize=auto;html=1;entryX=0.75;entryY=0;entryDx=0;entryDy=0;strokeColor=default;strokeWidth=2;align=center;verticalAlign=middle;fontFamily=Helvetica;fontSize=12;fontColor=default;labelBackgroundColor=default;endArrow=none;endFill=0;" parent="1" source="PQpFnVnvUSLF5VVCA4I8-8" target="k_0rw0cEwtQ7TOKx8WMM-1" edge="1">
          <mxGeometry relative="1" as="geometry">
            <Array as="points">
              <mxPoint x="2870" y="1299" />
              <mxPoint x="2870" y="90" />
              <mxPoint x="1130" y="90" />
            </Array>
          </mxGeometry>
        </mxCell>
        <mxCell id="PQpFnVnvUSLF5VVCA4I8-8" value="&lt;font style=&quot;font-size: 23px;&quot;&gt;&lt;b&gt;Contain&lt;/b&gt;&lt;/font&gt;" style="rhombus;whiteSpace=wrap;html=1;strokeColor=default;align=center;verticalAlign=middle;fontFamily=Helvetica;fontSize=12;fontColor=default;labelBackgroundColor=default;fillColor=default;strokeWidth=2;" parent="1" vertex="1">
          <mxGeometry x="2900" y="1239" width="150" height="120" as="geometry" />
        </mxCell>
        <mxCell id="PQpFnVnvUSLF5VVCA4I8-11" value="&lt;b&gt;&lt;font style=&quot;font-size: 20px;&quot;&gt;M&lt;/font&gt;&lt;/b&gt;" style="text;html=1;align=center;verticalAlign=middle;resizable=0;points=[];autosize=1;strokeColor=none;fillColor=none;fontFamily=Helvetica;fontSize=12;fontColor=default;labelBackgroundColor=default;" parent="1" vertex="1">
          <mxGeometry x="3160" y="1256" width="40" height="40" as="geometry" />
        </mxCell>
        <mxCell id="PQpFnVnvUSLF5VVCA4I8-13" style="edgeStyle=orthogonalEdgeStyle;shape=connector;rounded=0;orthogonalLoop=1;jettySize=auto;html=1;entryX=0;entryY=0.5;entryDx=0;entryDy=0;strokeColor=default;strokeWidth=2;align=center;verticalAlign=middle;fontFamily=Helvetica;fontSize=12;fontColor=default;labelBackgroundColor=default;endArrow=none;endFill=0;" parent="1" source="PQpFnVnvUSLF5VVCA4I8-12" target="dRdTeMSeaYYloBceYYoV-6" edge="1">
          <mxGeometry relative="1" as="geometry" />
        </mxCell>
        <mxCell id="PQpFnVnvUSLF5VVCA4I8-12" value="&lt;font style=&quot;font-size: 23px;&quot;&gt;&lt;b&gt;Have&lt;/b&gt;&lt;/font&gt;" style="rhombus;whiteSpace=wrap;html=1;strokeColor=default;align=center;verticalAlign=middle;fontFamily=Helvetica;fontSize=12;fontColor=default;labelBackgroundColor=default;fillColor=default;strokeWidth=2;" parent="1" vertex="1">
          <mxGeometry x="2625" y="325" width="150" height="120" as="geometry" />
        </mxCell>
        <mxCell id="PQpFnVnvUSLF5VVCA4I8-15" value="&lt;b&gt;&lt;font style=&quot;font-size: 20px;&quot;&gt;1&lt;/font&gt;&lt;/b&gt;" style="text;html=1;align=center;verticalAlign=middle;resizable=0;points=[];autosize=1;strokeColor=none;fillColor=none;fontFamily=Helvetica;fontSize=12;fontColor=default;labelBackgroundColor=default;" parent="1" vertex="1">
          <mxGeometry x="1200" y="414" width="30" height="40" as="geometry" />
        </mxCell>
        <mxCell id="PQpFnVnvUSLF5VVCA4I8-16" value="&lt;b&gt;&lt;font style=&quot;font-size: 20px;&quot;&gt;M&lt;/font&gt;&lt;/b&gt;" style="text;html=1;align=center;verticalAlign=middle;resizable=0;points=[];autosize=1;strokeColor=none;fillColor=none;fontFamily=Helvetica;fontSize=12;fontColor=default;labelBackgroundColor=default;" parent="1" vertex="1">
          <mxGeometry x="3050" y="344" width="40" height="40" as="geometry" />
        </mxCell>
        <mxCell id="PQpFnVnvUSLF5VVCA4I8-21" style="edgeStyle=orthogonalEdgeStyle;shape=connector;rounded=0;orthogonalLoop=1;jettySize=auto;html=1;exitX=1;exitY=0.5;exitDx=0;exitDy=0;entryX=0;entryY=0.75;entryDx=0;entryDy=0;strokeColor=default;strokeWidth=2;align=center;verticalAlign=middle;fontFamily=Helvetica;fontSize=12;fontColor=default;labelBackgroundColor=default;endArrow=none;endFill=0;" parent="1" source="PQpFnVnvUSLF5VVCA4I8-17" target="dRdTeMSeaYYloBceYYoV-6" edge="1">
          <mxGeometry relative="1" as="geometry">
            <Array as="points">
              <mxPoint x="2840" y="1240" />
              <mxPoint x="2840" y="413" />
            </Array>
          </mxGeometry>
        </mxCell>
        <mxCell id="PQpFnVnvUSLF5VVCA4I8-17" value="&lt;font style=&quot;font-size: 23px;&quot;&gt;&lt;b&gt;Leave&lt;/b&gt;&lt;/font&gt;" style="rhombus;whiteSpace=wrap;html=1;strokeColor=default;align=center;verticalAlign=middle;fontFamily=Helvetica;fontSize=12;fontColor=default;labelBackgroundColor=default;fillColor=default;strokeWidth=2;" parent="1" vertex="1">
          <mxGeometry x="2570" y="1180" width="150" height="120" as="geometry" />
        </mxCell>
        <mxCell id="PQpFnVnvUSLF5VVCA4I8-19" value="&lt;b&gt;&lt;font style=&quot;font-size: 20px;&quot;&gt;1&lt;/font&gt;&lt;/b&gt;" style="text;html=1;align=center;verticalAlign=middle;resizable=0;points=[];autosize=1;strokeColor=none;fillColor=none;fontFamily=Helvetica;fontSize=12;fontColor=default;labelBackgroundColor=default;" parent="1" vertex="1">
          <mxGeometry x="2283" y="890" width="30" height="40" as="geometry" />
        </mxCell>
        <mxCell id="PQpFnVnvUSLF5VVCA4I8-20" value="&lt;b&gt;&lt;font style=&quot;font-size: 20px;&quot;&gt;M&lt;/font&gt;&lt;/b&gt;" style="text;html=1;align=center;verticalAlign=middle;resizable=0;points=[];autosize=1;strokeColor=none;fillColor=none;fontFamily=Helvetica;fontSize=12;fontColor=default;labelBackgroundColor=default;" parent="1" vertex="1">
          <mxGeometry x="2530" y="1199" width="40" height="40" as="geometry" />
        </mxCell>
        <mxCell id="PQpFnVnvUSLF5VVCA4I8-22" value="&lt;b&gt;&lt;font style=&quot;font-size: 20px;&quot;&gt;1&lt;/font&gt;&lt;/b&gt;" style="text;html=1;align=center;verticalAlign=middle;resizable=0;points=[];autosize=1;strokeColor=none;fillColor=none;fontFamily=Helvetica;fontSize=12;fontColor=default;labelBackgroundColor=default;" parent="1" vertex="1">
          <mxGeometry x="3055" y="414" width="30" height="40" as="geometry" />
        </mxCell>
        <mxCell id="PQpFnVnvUSLF5VVCA4I8-28" style="edgeStyle=orthogonalEdgeStyle;shape=connector;rounded=0;orthogonalLoop=1;jettySize=auto;html=1;exitX=1;exitY=0.5;exitDx=0;exitDy=0;entryX=1;entryY=0.5;entryDx=0;entryDy=0;strokeColor=default;strokeWidth=2;align=center;verticalAlign=middle;fontFamily=Helvetica;fontSize=12;fontColor=default;labelBackgroundColor=default;endArrow=none;endFill=0;" parent="1" source="PQpFnVnvUSLF5VVCA4I8-24" target="dRdTeMSeaYYloBceYYoV-21" edge="1">
          <mxGeometry relative="1" as="geometry">
            <Array as="points">
              <mxPoint x="3820" y="1470" />
              <mxPoint x="3820" y="835" />
            </Array>
          </mxGeometry>
        </mxCell>
        <mxCell id="PQpFnVnvUSLF5VVCA4I8-24" value="&lt;font style=&quot;font-size: 23px;&quot;&gt;&lt;b&gt;Has&lt;/b&gt;&lt;/font&gt;" style="rhombus;whiteSpace=wrap;html=1;strokeColor=default;align=center;verticalAlign=middle;fontFamily=Helvetica;fontSize=12;fontColor=default;labelBackgroundColor=default;fillColor=default;strokeWidth=2;" parent="1" vertex="1">
          <mxGeometry x="2900" y="1410" width="150" height="120" as="geometry" />
        </mxCell>
        <mxCell id="PQpFnVnvUSLF5VVCA4I8-27" value="&lt;b&gt;&lt;font style=&quot;font-size: 20px;&quot;&gt;1&lt;/font&gt;&lt;/b&gt;" style="text;html=1;align=center;verticalAlign=middle;resizable=0;points=[];autosize=1;strokeColor=none;fillColor=none;fontFamily=Helvetica;fontSize=12;fontColor=default;labelBackgroundColor=default;" parent="1" vertex="1">
          <mxGeometry x="2212" y="890" width="30" height="40" as="geometry" />
        </mxCell>
        <mxCell id="PQpFnVnvUSLF5VVCA4I8-29" value="&lt;b&gt;&lt;font style=&quot;font-size: 20px;&quot;&gt;1&lt;/font&gt;&lt;/b&gt;" style="text;html=1;align=center;verticalAlign=middle;resizable=0;points=[];autosize=1;strokeColor=none;fillColor=none;fontFamily=Helvetica;fontSize=12;fontColor=default;labelBackgroundColor=default;" parent="1" vertex="1">
          <mxGeometry x="3480" y="794" width="30" height="40" as="geometry" />
        </mxCell>
        <mxCell id="7LaxVrVwwIbNa8i8OrR7-1" style="edgeStyle=none;rounded=0;orthogonalLoop=1;jettySize=auto;html=1;exitX=0.25;exitY=0;exitDx=0;exitDy=0;entryX=0.5;entryY=1;entryDx=0;entryDy=0;strokeColor=default;strokeWidth=2;align=center;verticalAlign=middle;fontFamily=Helvetica;fontSize=12;fontColor=default;labelBackgroundColor=default;endArrow=none;endFill=0;" parent="1" source="7LaxVrVwwIbNa8i8OrR7-4" target="7LaxVrVwwIbNa8i8OrR7-6" edge="1">
          <mxGeometry relative="1" as="geometry" />
        </mxCell>
        <mxCell id="7LaxVrVwwIbNa8i8OrR7-2" style="edgeStyle=none;rounded=0;orthogonalLoop=1;jettySize=auto;html=1;exitX=0.75;exitY=0;exitDx=0;exitDy=0;entryX=0.5;entryY=1;entryDx=0;entryDy=0;strokeColor=default;strokeWidth=2;align=center;verticalAlign=middle;fontFamily=Helvetica;fontSize=12;fontColor=default;labelBackgroundColor=default;endArrow=none;endFill=0;" parent="1" source="7LaxVrVwwIbNa8i8OrR7-4" target="7LaxVrVwwIbNa8i8OrR7-7" edge="1">
          <mxGeometry relative="1" as="geometry" />
        </mxCell>
        <mxCell id="7LaxVrVwwIbNa8i8OrR7-3" style="edgeStyle=none;rounded=0;orthogonalLoop=1;jettySize=auto;html=1;exitX=1;exitY=0.25;exitDx=0;exitDy=0;entryX=0;entryY=1;entryDx=0;entryDy=0;strokeColor=default;strokeWidth=2;align=center;verticalAlign=middle;fontFamily=Helvetica;fontSize=12;fontColor=default;labelBackgroundColor=default;endArrow=none;endFill=0;" parent="1" source="7LaxVrVwwIbNa8i8OrR7-4" target="7LaxVrVwwIbNa8i8OrR7-8" edge="1">
          <mxGeometry relative="1" as="geometry" />
        </mxCell>
        <mxCell id="7LaxVrVwwIbNa8i8OrR7-4" value="User" style="rounded=1;whiteSpace=wrap;html=1;strokeWidth=2;fontStyle=1;fontSize=36;" parent="1" vertex="1">
          <mxGeometry x="3726" y="520" width="280" height="110" as="geometry" />
        </mxCell>
        <mxCell id="7LaxVrVwwIbNa8i8OrR7-5" style="edgeStyle=none;rounded=0;orthogonalLoop=1;jettySize=auto;html=1;exitX=0.778;exitY=0.957;exitDx=0;exitDy=0;entryX=0;entryY=0;entryDx=0;entryDy=0;strokeColor=default;strokeWidth=2;align=center;verticalAlign=middle;fontFamily=Helvetica;fontSize=12;fontColor=default;labelBackgroundColor=default;endArrow=none;endFill=0;exitPerimeter=0;" parent="1" source="7LaxVrVwwIbNa8i8OrR7-9" edge="1">
          <mxGeometry relative="1" as="geometry">
            <mxPoint x="3690" y="485" as="sourcePoint" />
            <mxPoint x="3736" y="525" as="targetPoint" />
          </mxGeometry>
        </mxCell>
        <mxCell id="7LaxVrVwwIbNa8i8OrR7-6" value="password" style="ellipse;whiteSpace=wrap;html=1;fontSize=22;" parent="1" vertex="1">
          <mxGeometry x="3726" y="360" width="180" height="70" as="geometry" />
        </mxCell>
        <mxCell id="7LaxVrVwwIbNa8i8OrR7-7" value="NIC" style="ellipse;whiteSpace=wrap;html=1;fontSize=22;" parent="1" vertex="1">
          <mxGeometry x="3906" y="390" width="180" height="70" as="geometry" />
        </mxCell>
        <mxCell id="7LaxVrVwwIbNa8i8OrR7-8" value="&lt;u&gt;UserID&lt;/u&gt;" style="ellipse;whiteSpace=wrap;html=1;fontSize=22;" parent="1" vertex="1">
          <mxGeometry x="4096" y="445" width="180" height="70" as="geometry" />
        </mxCell>
        <mxCell id="7LaxVrVwwIbNa8i8OrR7-9" value="UserName" style="ellipse;whiteSpace=wrap;html=1;fontSize=22;" parent="1" vertex="1">
          <mxGeometry x="3537" y="400" width="180" height="70" as="geometry" />
        </mxCell>
        <mxCell id="7LaxVrVwwIbNa8i8OrR7-14" value="Type" style="ellipse;whiteSpace=wrap;html=1;fontSize=22;" parent="1" vertex="1">
          <mxGeometry x="4130" y="590" width="180" height="70" as="geometry" />
        </mxCell>
        <mxCell id="7LaxVrVwwIbNa8i8OrR7-15" style="edgeStyle=none;rounded=0;orthogonalLoop=1;jettySize=auto;html=1;exitX=1;exitY=0.5;exitDx=0;exitDy=0;entryX=0;entryY=0.5;entryDx=0;entryDy=0;strokeColor=default;strokeWidth=2;align=center;verticalAlign=middle;fontFamily=Helvetica;fontSize=12;fontColor=default;labelBackgroundColor=default;endArrow=none;endFill=0;" parent="1" source="7LaxVrVwwIbNa8i8OrR7-4" target="7LaxVrVwwIbNa8i8OrR7-14" edge="1">
          <mxGeometry relative="1" as="geometry">
            <mxPoint x="4069.9999999999995" y="650" as="sourcePoint" />
            <mxPoint x="4145.0599999999995" y="747.27" as="targetPoint" />
          </mxGeometry>
        </mxCell>
        <mxCell id="aR7ZFJ2rUv2n5CgMKXSV-1" value="" style="ellipse;whiteSpace=wrap;html=1;fontSize=22;fillColor=none;" parent="1" vertex="1">
          <mxGeometry x="2580" y="690" width="220" height="90" as="geometry" />
        </mxCell>
      </root>
    </mxGraphModel>
  </diagram>
</mxfile>
